<svg xmlns="http://www.w3.org/2000/svg" xmlns:xlink="http://www.w3.org/1999/xlink" width="1089" height="448" xmlns:v="https://vecta.io/nano"><style><![CDATA[.B{fill-rule:nonzero}.C{stroke-width:2}.D{fill:#000}.E{stroke:#000}.F{fill:#fff}.G{stroke-width:1.5}.H{stroke:#c22e4a}]]></style><g fill="none" fill-rule="evenodd"><path d="M856.9 50.5h181.6v346.9H856.9z" class="C H"/><g class="B D"><path d="M906.9 84.2h-7.4V73.7h7.3v1.1h-6.1v3.5h5.9v1.1h-5.9V83h6.2zm3.7 0h-1.1V73.4h1.1zm9.3 0h-1.1v-1.1c-.6.7-1.4 1.2-2.6 1.2-2 0-3.6-1.6-3.6-3.7s1.6-3.7 3.6-3.7c1.2 0 2 .5 2.6 1.2V77h1.1v7.2zm-6.1-3.5c0 1.5 1 2.7 2.5 2.7s2.5-1.1 2.5-2.7c0-1.5-1.1-2.6-2.5-2.6-1.5-.1-2.5 1.1-2.5 2.6zm13.5-2.1c-.5-.3-1.4-.7-2.3-.7-1 0-1.7.4-1.7 1.1 0 .6.5.9 1.4 1l.8.1c1.5.2 2.4.8 2.4 2 0 1.4-1.2 2.2-3.1 2.2-.9 0-2.1-.2-3-.9l.5-.8c.5.4 1.3.8 2.5.8s2-.4 2-1.1c0-.6-.5-.9-1.5-1l-.8-.1c-1.6-.2-2.3-.9-2.3-2 0-1.3 1.1-2.2 2.8-2.2 1.1 0 2.1.3 2.8.8l-.5.8zm7.5-.5h-3.1v3.6c0 1.1.6 1.6 1.4 1.6.5 0 1.1-.2 1.5-.5l.5.8c-.5.4-1.2.7-2.1.7-1.5 0-2.4-.8-2.4-2.6v-3.6H929v-1h1.6v-2.3h1.1v2.3h3.1v1zm3.3-3.5c0 .5-.4.8-.8.8-.5 0-.8-.3-.8-.8 0-.4.3-.8.8-.8s.8.4.8.8zm-.2 9.6h-1.1v-7.1h1.1v7.1zm8.4-6.1l-.7.8c-.5-.5-1.2-.8-1.9-.8-1.4 0-2.5 1.1-2.5 2.6s1.1 2.7 2.5 2.7c.8 0 1.5-.3 2-.8l.7.8c-.6.7-1.6 1.1-2.6 1.1-2.2 0-3.7-1.6-3.7-3.7s1.5-3.7 3.7-3.7c.9-.1 1.8.3 2.5 1zm8.9-2.4c-.8-.6-1.9-1-3.2-1-1.6 0-2.7.7-2.7 1.9 0 1 .8 1.5 2.4 1.7l1 .1c1.7.2 3.3.9 3.3 2.8 0 2.1-1.9 3.2-4.2 3.2-1.5 0-3.1-.5-4.1-1.4l.7-1c.7.6 2.1 1.2 3.5 1.2 1.6 0 2.9-.7 2.9-1.9 0-1-.9-1.5-2.5-1.7l-1.1-.1c-1.8-.2-3.1-1-3.1-2.8 0-2 1.8-3.1 4-3.1 1.6 0 2.8.5 3.8 1.1l-.7 1zm9.5 5v.4H959c.2 1.5 1.2 2.3 2.5 2.3.9 0 1.6-.3 2.3-.9l.6.8a4.23 4.23 0 0 1-2.9 1.1c-2.1 0-3.6-1.5-3.6-3.7s1.5-3.7 3.5-3.7c1.9 0 3.3 1.5 3.3 3.7zm-5.7-.5h4.6c-.1-1.3-1-2.2-2.2-2.2-1.4 0-2.2.9-2.4 2.2zm14.5 4h-1.1v-1.1c-.6.7-1.4 1.2-2.6 1.2-2 0-3.6-1.6-3.6-3.7s1.6-3.7 3.6-3.7c1.2 0 2 .5 2.6 1.2V77h1.1v7.2zm-6.1-3.5c0 1.5 1 2.7 2.5 2.7s2.5-1.1 2.5-2.7c0-1.5-1.1-2.6-2.5-2.6-1.5-.1-2.5 1.1-2.5 2.6zm13.2-3.5l-.3 1.1c-.3-.2-.8-.3-1.2-.3-1.1 0-1.9.9-1.9 2.2v4h-1.1v-7.1h1.1v1c.5-.7 1.2-1.1 2.1-1.1a4.44 4.44 0 0 1 1.3.2zm7.2.9l-.7.8c-.5-.5-1.2-.8-1.9-.8-1.4 0-2.5 1.1-2.5 2.6s1.1 2.7 2.5 2.7c.8 0 1.5-.3 2-.8l.7.8c-.6.7-1.6 1.1-2.6 1.1-2.2 0-3.7-1.6-3.7-3.7s1.5-3.7 3.7-3.7c.9-.1 1.9.3 2.5 1zm3 0c.6-.8 1.5-1.1 2.4-1.1 1.8 0 3 1.1 3 2.8v4.4h-1.1v-4c0-1.4-.8-2.1-2-2.1s-2.2.8-2.2 2.2v4h-1.1V73.4h1.1v4.7h-.1zm-84.4 31.2v4.2h-1.2V103h4c2.4 0 3.7 1.2 3.7 3.1s-1.4 3.1-3.7 3.1h-2.8v.1zm0-5.1v4h2.7c1.6 0 2.5-.7 2.5-2s-.9-2-2.5-2h-2.7zm15.3 5.8c0 2.1-1.6 3.7-3.7 3.7s-3.7-1.6-3.7-3.7 1.6-3.7 3.7-3.7 3.7 1.6 3.7 3.7zm-6.4 0c0 1.5 1.1 2.7 2.6 2.7s2.6-1.1 2.6-2.7c0-1.5-1.1-2.6-2.6-2.6-1.5-.1-2.6 1-2.6 2.6zm13.2-2.1c-.5-.3-1.4-.7-2.3-.7-1 0-1.7.4-1.7 1.1 0 .6.5.9 1.4 1l.8.1c1.5.2 2.4.8 2.4 2 0 1.4-1.2 2.2-3.1 2.2-.9 0-2.1-.2-3-.9l.5-.8c.5.4 1.3.8 2.5.8s2-.4 2-1.1c0-.6-.5-.9-1.5-1l-.8-.1c-1.6-.2-2.3-.9-2.3-2 0-1.3 1.1-2.2 2.8-2.2 1.1 0 2.1.3 2.8.8l-.5.8zm7.5-.5h-3.1v3.6c0 1.1.6 1.6 1.4 1.6.5 0 1.1-.2 1.5-.5l.5.8c-.5.4-1.2.7-2.1.7-1.5 0-2.4-.8-2.4-2.6v-3.6h-1.6v-1h1.6v-2.3h1.1v2.3h3.1v1zm7.4.1v-1.1h1.1v6.6c0 2.3-1.6 3.6-3.8 3.6-1.1 0-2.3-.4-3-1l.5-.9c.7.5 1.5.8 2.5.8 1.5 0 2.6-.9 2.6-2.5v-.7c-.5.7-1.4 1.2-2.5 1.2-2 0-3.5-1.5-3.5-3.6s1.5-3.6 3.5-3.6c1.3 0 2.1.5 2.6 1.2zm-4.9 2.4c0 1.4 1 2.6 2.5 2.6s2.5-1.1 2.5-2.6-1-2.6-2.5-2.6-2.5 1.2-2.5 2.6zm13.2-3.4l-.3 1.1c-.3-.2-.8-.3-1.2-.3-1.1 0-1.9.9-1.9 2.2v4h-1.1v-7.1h1.1v1c.5-.7 1.2-1.1 2.1-1.1.5 0 .9 0 1.3.2zm7.7 3.4v.4h-5.7c.2 1.5 1.2 2.3 2.5 2.3.9 0 1.6-.3 2.3-.9l.6.8a4.23 4.23 0 0 1-2.9 1.1c-2.1 0-3.6-1.5-3.6-3.7s1.5-3.7 3.5-3.7c1.9.1 3.3 1.6 3.3 3.7zm-5.7-.4h4.6c-.1-1.3-1-2.2-2.2-2.2-1.3 0-2.2.9-2.4 2.2zm14.9-4.5c-.8-.6-1.9-1-3.2-1-1.6 0-2.7.7-2.7 1.9 0 1 .8 1.5 2.4 1.7l1 .1c1.7.2 3.3.9 3.3 2.8 0 2.1-1.9 3.2-4.2 3.2-1.5 0-3.1-.5-4.1-1.4l.7-1c.7.6 2.1 1.2 3.5 1.2 1.6 0 2.9-.7 2.9-1.9 0-1-.9-1.5-2.5-1.7l-1.1-.1c-1.8-.2-3.1-1-3.1-2.8 0-2 1.8-3.1 4-3.1 1.6 0 2.8.5 3.8 1.1l-.7 1zm13.4 3.3c0 1.4-.4 2.6-1.2 3.5l1.4 1.8h-1.4l-.8-1c-.9.7-2.1 1.1-3.4 1.1-3.1 0-5.4-2.3-5.4-5.4 0-3.2 2.3-5.4 5.4-5.4s5.4 2.2 5.4 5.4zm-9.5 0c0 2.5 1.8 4.2 4.2 4.2 1 0 2-.3 2.7-.9l-2.4-3.1h1.4l1.8 2.3c.4-.7.7-1.5.7-2.5 0-2.5-1.8-4.2-4.2-4.2-2.4-.1-4.2 1.6-4.2 4.2zm19.2 5.2h-7.3V103h1.2v9.4h6.1v1.1zm-61.8 25.1h1l2.7-2.9h1.4l-3.2 3.3 3.3 3.8h-1.4l-2.8-3.2h-1v3.2h-1.1V132h1.1zm13.3 4.2h-1.1v-1.1c-.6.7-1.4 1.2-2.6 1.2-2 0-3.6-1.6-3.6-3.7s1.6-3.7 3.6-3.7c1.2 0 2 .5 2.6 1.2v-1.1h1.1v7.2zm-6.2-3.5c0 1.5 1 2.7 2.5 2.7s2.5-1.1 2.5-2.7c0-1.5-1.1-2.6-2.5-2.6-1.4-.1-2.5 1.1-2.5 2.6zm13.5-2.6h-2.8v6.1h-1.1v-6.1H945v-1h1.6v-1.2c0-1.5.7-2.6 2.4-2.6.8 0 1.4.2 1.9.5l-.4.9c-.4-.2-.9-.4-1.5-.4-.9 0-1.3.6-1.3 1.6v1.2h2.8v1zm2.9 1.9h1l2.7-2.9h1.4l-3.2 3.3 3.3 3.8h-1.4l-2.8-3.2h-1v3.2h-1.1V132h1.1zm13.2 4.2h-1.1v-1.1c-.6.7-1.4 1.2-2.6 1.2-2 0-3.6-1.6-3.6-3.7s1.6-3.7 3.6-3.7c1.2 0 2 .5 2.6 1.2v-1.1h1.1v7.2zm-6.1-3.5c0 1.5 1 2.7 2.5 2.7s2.5-1.1 2.5-2.7c0-1.5-1.1-2.6-2.5-2.6-1.5-.1-2.5 1.1-2.5 2.6zm-26 32.8h-1.3l-1.2-2.9h-5.2l-1.2 2.9h-1.3l4.3-10.5h1.5l4.4 10.5zm-7.3-4h4.3l-2.1-5.2-2.2 5.2zm20 4H946V163l-3.7 8H941l-3.7-7.9v9.1h-1.2v-10.5h1.8l3.7 7.9 3.7-7.9h1.8v10.4zm13.3-5.2c0 1.4-.4 2.6-1.2 3.5l1.4 1.8h-1.4l-.8-1c-.9.7-2.1 1.1-3.4 1.1-3.1 0-5.4-2.3-5.4-5.4 0-3.2 2.3-5.4 5.4-5.4s5.4 2.2 5.4 5.4zm-9.6 0c0 2.5 1.8 4.2 4.2 4.2 1 0 2-.3 2.7-.9l-2.4-3.1h1.4l1.8 2.3c.4-.7.7-1.5.7-2.5 0-2.5-1.8-4.2-4.2-4.2-2.4-.1-4.2 1.6-4.2 4.2zm13.2 1v4.2h-1.2v-10.5h4c2.4 0 3.7 1.2 3.7 3.1s-1.4 3.1-3.7 3.1h-2.8v.1zm0-5.1v4h2.7c1.6 0 2.5-.7 2.5-2s-.9-2-2.5-2h-2.7zM938 201.4h-1.2v-9.2l-3.7 8h-1.3l-3.7-7.9v9.1H927v-10.5h1.8l3.7 7.9 3.7-7.9h1.8zm13.3-5.2c0 1.4-.4 2.6-1.2 3.5l1.4 1.8h-1.4l-.8-1c-.9.7-2.1 1.1-3.4 1.1-3.1 0-5.4-2.3-5.4-5.4 0-3.2 2.3-5.4 5.4-5.4s5.4 2.2 5.4 5.4zm-9.6 0c0 2.5 1.8 4.2 4.2 4.2 1 0 2-.3 2.7-.9l-2.4-3.1h1.4l1.8 2.3c.4-.7.7-1.5.7-2.5 0-2.5-1.8-4.2-4.2-4.2-2.4-.1-4.2 1.6-4.2 4.2zm19-4.2H957v9.4h-1.2V192h-3.6v-1.1h8.5v1.1zm9.2 0h-3.6v9.4h-1.2V192h-3.6v-1.1h8.5v1.1zm-33.8 31.7l-.3 1.1c-.3-.2-.8-.3-1.2-.3-1.1 0-1.9.9-1.9 2.2v4h-1.1v-7.1h1.1v1c.5-.7 1.2-1.1 2.1-1.1.5 0 1 0 1.3.2zm7.8 3.4v.4h-5.7c.2 1.5 1.2 2.3 2.5 2.3.9 0 1.6-.3 2.3-.9l.6.8a4.23 4.23 0 0 1-2.9 1.1c-2.1 0-3.6-1.5-3.6-3.7s1.5-3.7 3.5-3.7c1.9.1 3.3 1.6 3.3 3.7zm-5.7-.5h4.6c-.1-1.3-1-2.2-2.2-2.2-1.4.1-2.3 1-2.4 2.2zm13.4-1.9v-4.8h1.1v10.8h-1.1v-1.1c-.6.7-1.4 1.2-2.6 1.2-2 0-3.6-1.6-3.6-3.7s1.6-3.7 3.6-3.7c1.1.1 2 .5 2.6 1.3zm-5.1 2.5c0 1.5 1 2.7 2.5 2.7s2.5-1.1 2.5-2.7c0-1.5-1.1-2.6-2.5-2.6-1.4-.1-2.5 1.1-2.5 2.6zm10.2-6.1c0 .4-.4.8-.8.8-.5 0-.8-.3-.8-.8s.3-.8.8-.8c.4 0 .8.3.8.8zm-.3 9.6h-1.1v-7.1h1.1v7.1zm7.4-5.6c-.5-.3-1.4-.7-2.3-.7-1 0-1.7.4-1.7 1.1 0 .6.5.9 1.4 1l.8.1c1.5.2 2.4.8 2.4 2 0 1.4-1.2 2.2-3.1 2.2-.9 0-2.1-.2-3-.9l.5-.8c.5.4 1.3.8 2.5.8s2-.4 2-1.1c0-.6-.5-.9-1.5-1l-.8-.1c-1.6-.2-2.3-.9-2.3-2 0-1.3 1.1-2.2 2.8-2.2 1.1 0 2.1.3 2.8.8l-.5.8zM937.6 260h-1.1l-6.5-8.4v8.4h-1.2v-10.5h1.1l6.5 8.4v-8.4h1.2zm12 0h-1.3l-1.2-2.9h-5.2l-1.2 2.9h-1.3l4.3-10.5h1.5l4.4 10.5zm-7.3-4.1h4.3l-2.1-5.2-2.2 5.2zm15.5-5.3h-3.6v9.4H953v-9.4h-3.6v-1.1h8.5v1.1zm8.6.9c-.8-.6-1.9-1-3.2-1-1.6 0-2.7.7-2.7 1.9 0 1 .8 1.5 2.4 1.7l1 .1c1.7.2 3.3.9 3.3 2.8 0 2.1-1.9 3.2-4.2 3.2-1.5 0-3.1-.5-4.1-1.4l.7-1c.7.6 2.1 1.2 3.5 1.2 1.6 0 2.9-.7 2.9-1.9 0-1-.9-1.5-2.5-1.7l-1.1-.1c-1.8-.2-3.1-1-3.1-2.8 0-2 1.8-3.1 4-3.1 1.6 0 2.8.5 3.8 1.1l-.7 1zm-32.9 37.8h-1.2v-9.2l-3.7 8h-1.3l-3.7-7.9v9.1h-1.2v-10.5h1.8l3.7 7.9 3.7-7.9h1.8v10.5zm3.5 3h-1.2l2.7-4.6-3.3-5.6h1.3l2.7 4.5 2.5-4.5h1.2zm14.3-11.5c-.8-.6-1.9-1-3.2-1-1.6 0-2.7.7-2.7 1.9 0 1 .8 1.5 2.4 1.7l1 .1c1.7.2 3.3.9 3.3 2.8 0 2.1-1.9 3.2-4.2 3.2-1.5 0-3.1-.5-4.1-1.4l.7-1c.7.6 2.1 1.2 3.5 1.2 1.6 0 2.9-.7 2.9-1.9 0-1-.9-1.5-2.5-1.7l-1.1-.1c-1.8-.2-3.1-1-3.1-2.8 0-2 1.8-3.1 4-3.1 1.6 0 2.8.5 3.8 1.1l-.7 1zm13.5 3.2c0 1.4-.4 2.6-1.2 3.5l1.4 1.8h-1.4l-.8-1c-.9.7-2.1 1.1-3.4 1.1-3.1 0-5.4-2.3-5.4-5.4 0-3.2 2.3-5.4 5.4-5.4s5.4 2.3 5.4 5.4zm-9.6 0c0 2.5 1.8 4.2 4.2 4.2 1 0 2-.3 2.7-.9l-2.4-3.1h1.4l1.8 2.3c.4-.7.7-1.5.7-2.5 0-2.5-1.8-4.2-4.2-4.2s-4.2 1.7-4.2 4.2zm19.3 5.3h-7.3v-10.5h1.2v9.4h6.1v1.1z"/><path d="M936.1 311.6l-.3 1.1c-.3-.2-.8-.3-1.2-.3-1.1 0-1.9.9-1.9 2.2v4h-1.1v-7.1h1.1v1c.5-.7 1.2-1.1 2.1-1.1.5-.1 1 0 1.3.2zm7.8 3.4v.4h-5.7c.2 1.5 1.2 2.3 2.5 2.3.9 0 1.6-.3 2.3-.9l.6.8a4.23 4.23 0 0 1-2.9 1.1c-2.1 0-3.6-1.5-3.6-3.7s1.5-3.7 3.5-3.7c1.9 0 3.3 1.6 3.3 3.7zm-5.7-.5h4.6c-.1-1.3-1-2.2-2.2-2.2-1.4 0-2.3.9-2.4 2.2zm13.4-2v-4.8h1.1v10.8h-1.1v-1.1c-.6.7-1.4 1.2-2.6 1.2-2 0-3.6-1.6-3.6-3.7s1.6-3.7 3.6-3.7c1.1.1 2 .6 2.6 1.3zm-5.1 2.5c0 1.5 1 2.7 2.5 2.7s2.5-1.1 2.5-2.7c0-1.5-1.1-2.6-2.5-2.6s-2.5 1.2-2.5 2.6zm10.2-6c0 .4-.4.8-.8.8-.5 0-.8-.3-.8-.8s.3-.8.8-.8c.4 0 .8.3.8.8zm-.3 9.6h-1.1v-7.1h1.1v7.1zm7.4-5.6c-.5-.3-1.4-.7-2.3-.7-1 0-1.7.4-1.7 1.1 0 .6.5.9 1.4 1l.8.1c1.5.2 2.4.8 2.4 2 0 1.4-1.2 2.2-3.1 2.2-.9 0-2.1-.2-3-.9l.5-.8c.5.4 1.3.8 2.5.8s2-.4 2-1.1c0-.6-.5-.9-1.5-1l-.8-.1c-1.6-.2-2.3-.9-2.3-2 0-1.3 1.1-2.2 2.8-2.2 1.1 0 2.1.3 2.8.8l-.5.8zm-41.4 34.9h-1.5L918 339l-2.9 8.9h-1.5l-3.4-10.5h1.3l2.9 9.1 3-9.1h1.4l3 9.2 2.9-9.2h1.2zm10.8-3.6v.4h-5.7c.2 1.5 1.2 2.3 2.5 2.3.9 0 1.6-.3 2.3-.9l.6.8a4.23 4.23 0 0 1-2.9 1.1c-2.1 0-3.6-1.5-3.6-3.7s1.5-3.7 3.5-3.7c1.8 0 3.2 1.5 3.3 3.7zm-5.8-.5h4.6c-.1-1.3-1-2.2-2.2-2.2-1.3 0-2.2.9-2.4 2.2zm15.1.5c0 2.1-1.6 3.7-3.6 3.7-1.2 0-2-.5-2.6-1.2v1.1h-1.1v-10.8h1.1v4.8c.6-.7 1.4-1.2 2.6-1.2 2-.1 3.6 1.5 3.6 3.6zm-6.2 0c0 1.5 1 2.7 2.5 2.7s2.5-1.2 2.5-2.7-1-2.6-2.5-2.6-2.5 1.1-2.5 2.6zm9.4-2.5c.6-.8 1.5-1.1 2.4-1.1 1.8 0 3 1.1 3 2.8v4.4H950v-4c0-1.4-.8-2.1-2-2.1s-2.2.8-2.2 2.2v4h-1.1v-10.8h1.1v4.6h-.1zm14.8 2.5c0 2.1-1.6 3.7-3.7 3.7s-3.7-1.6-3.7-3.7 1.6-3.7 3.7-3.7 3.7 1.6 3.7 3.7zm-6.3 0c0 1.5 1.1 2.7 2.6 2.7s2.6-1.1 2.6-2.7c0-1.5-1.1-2.6-2.6-2.6s-2.6 1.1-2.6 2.6zm15.3 0c0 2.1-1.6 3.7-3.7 3.7s-3.7-1.6-3.7-3.7 1.6-3.7 3.7-3.7 3.7 1.6 3.7 3.7zm-6.3 0c0 1.5 1.1 2.7 2.6 2.7s2.6-1.1 2.6-2.7c0-1.5-1.1-2.6-2.6-2.6s-2.6 1.1-2.6 2.6zm9.6-.6h1l2.7-2.9h1.4l-3.2 3.3 3.3 3.8h-1.4l-2.8-3.2h-1v3.2h-1.1v-10.8h1.1zm11.5-1.4c-.5-.3-1.4-.7-2.3-.7-1 0-1.7.4-1.7 1.1 0 .6.5.9 1.4 1l.8.1c1.5.2 2.4.8 2.4 2 0 1.4-1.2 2.2-3.1 2.2-.9 0-2.1-.2-3-.9l.5-.8c.5.4 1.3.8 2.5.8s2-.4 2-1.1c0-.6-.5-.9-1.5-1l-.8-.1c-1.6-.2-2.3-.9-2.3-2 0-1.3 1.1-2.2 2.8-2.2 1.1 0 2.1.3 2.8.8l-.5.8zm-43.5 34.9h-1.1l-6.5-8.4v8.4H932v-10.5h1.1l6.5 8.4v-8.4h1.2zm9.8-8.5c-.8-.6-1.9-1-3.2-1-1.6 0-2.7.7-2.7 1.9 0 1 .8 1.5 2.4 1.7l1 .1c1.7.2 3.3.9 3.3 2.8 0 2.1-1.9 3.2-4.2 3.2-1.5 0-3.1-.5-4.1-1.4l.7-1c.7.6 2.1 1.2 3.5 1.2 1.6 0 2.9-.7 2.9-1.9 0-1-.9-1.5-2.5-1.7l-1.1-.1c-1.8-.2-3.1-1-3.1-2.8 0-2 1.8-3.1 4-3.1 1.6 0 2.8.5 3.8 1.1l-.7 1zm13.5 3.2c0 1.4-.4 2.6-1.2 3.5l1.4 1.8h-1.4l-.8-1c-.9.7-2.1 1.1-3.4 1.1-3.1 0-5.4-2.3-5.4-5.4 0-3.2 2.3-5.4 5.4-5.4s5.4 2.3 5.4 5.4zm-9.6 0c0 2.5 1.8 4.2 4.2 4.2 1 0 2-.3 2.7-.9l-2.4-3.1h1.4l1.8 2.3c.4-.7.7-1.5.7-2.5 0-2.5-1.8-4.2-4.2-4.2s-4.2 1.7-4.2 4.2z"/></g><path d="M716 224h132.9" class="E G"/><path d="M847.3 229.6l9.7-5.6-9.7-5.6z" class="B D"/><path d="M716.5 146.9h131.9" class="E G"/><path d="M846.8 152.5l9.7-5.6-9.7-5.6z" class="B D"/><path d="M716 301.1h132.9" class="E G"/><path d="M847.3 306.7l9.7-5.6-9.7-5.6zm-89.9-148c0-2.3 1.4-3.7 3.2-3.7 1 0 1.6.4 2 .9l-.6.7c-.3-.3-.7-.6-1.4-.6-1.2 0-2.1 1-2.1 2.7s.7 2.8 2.1 2.8c.4 0 .9-.1 1.1-.4v-1.7h-1.3v-.9h2.3v3.1c-.5.5-1.2.8-2.2.8-1.8 0-3.1-1.3-3.1-3.7zm6.7.9c0-1.8 1.3-2.8 2.8-2.8 1.6 0 2.5 1 2.5 2.5v.6H765v-.8h3.7l-.2.3c0-1.2-.6-1.8-1.5-1.8s-1.7.7-1.7 2 .8 2 2 2c.6 0 1.1-.2 1.6-.5l.4.7c-.6.4-1.3.6-2.1.6-1.8 0-3.1-1-3.1-2.8zm8.1.6v-2.4h-1.5v-.8l1.5-.1.1-1.7h.9v1.7h2.5v.9h-2.5v2.4c0 .9.3 1.4 1.3 1.4a3.73 3.73 0 0 0 1.2-.2l.2.8c-.5.2-1 .3-1.7.3-1.5-.1-2-1-2-2.3zm4.9-1.5c0-2.3 1.2-3.7 2.8-3.7s2.8 1.4 2.8 3.7c0 2.4-1.2 3.8-2.8 3.8s-2.8-1.5-2.8-3.8zm4.5 0c0-1.7-.7-2.7-1.7-2.7s-1.7 1-1.7 2.7c0 1.8.7 2.8 1.7 2.8s1.7-1.1 1.7-2.8zm3.6 3l-.1.6h-.9v-7.8h1.1v3.1c.5-.5 1.1-.8 1.7-.8 1.4 0 2.2 1.1 2.2 2.7 0 1.8-1.1 2.9-2.4 2.9-.5 0-1.1-.2-1.6-.7zm2.9-2.2c0-1.1-.4-1.8-1.4-1.8-.4 0-.9.2-1.4.7v2.5c.4.4 1 .5 1.3.5.8.1 1.5-.6 1.5-1.9zm2.3 4.8l.3-.8c.4.2.8.3 1.2.3 1 0 1.3-.5 1.3-1.4v-4.6h-2.4v-.9h3.5v5.4c0 1.3-.5 2.3-2.3 2.3-.6 0-1.2-.1-1.6-.3zm2.4-9.2c0-.5.3-.8.8-.8s.8.3.8.8-.3.8-.8.8-.8-.3-.8-.8zm4.3 4.5c0-1.8 1.3-2.8 2.8-2.8 1.6 0 2.5 1 2.5 2.5 0 .2 0 .5-.1.6h-4.4v-.8h3.7l-.2.3c0-1.2-.6-1.8-1.5-1.8s-1.7.7-1.7 2 .8 2 2 2c.6 0 1.1-.2 1.6-.5l.4.7c-.6.4-1.3.6-2.1.6-1.7 0-3-1-3-2.8zm6.8 0c0-1.8 1.4-2.8 3-2.8.9 0 1.5.3 2 .8l-.5.7c-.4-.4-.9-.6-1.4-.6-1.2 0-2 .8-2 1.9 0 1.2.8 1.9 1.9 1.9.6 0 1.2-.3 1.6-.6l.5.7c-.6.5-1.4.8-2.2.8-1.7 0-2.9-1-2.9-2.8zm7.9.6v-2.4h-1.5v-.8l1.5-.1.1-1.7h.9v1.7h2.5v.9h-2.5v2.4c0 .9.3 1.4 1.3 1.4a3.73 3.73 0 0 0 1.2-.2l.2.8c-.5.2-1 .3-1.7.3-1.5-.1-2-1-2-2.3zm-53.9 72h2.3c1.6 0 2.7.5 2.7 2.2 0 1.6-1.1 2.3-2.7 2.3H759v2.8h-1.1v-7.3zm2.1 3.5c1.2 0 1.7-.4 1.7-1.4s-.6-1.3-1.7-1.3h-1v2.7h1zm4.2 1.6V234h1.1v3.2c0 .9.3 1.4 1.1 1.4.6 0 1-.2 1.5-.9V234h1.1v5.4h-.9l-.1-.9c-.5.6-1.1 1-2 1-1.2 0-1.8-.8-1.8-2.2zm8 0v-2.4h-1.5v-.8l1.5-.1.1-1.7h.9v1.7h2.5v.9h-2.5v2.4c0 .9.3 1.4 1.3 1.4a3.73 3.73 0 0 0 1.2-.2l.2.8c-.5.2-1 .3-1.7.3-1.5-.1-2-1-2-2.3zm4.9-1.6c0-2.3 1.2-3.7 2.8-3.7s2.8 1.4 2.8 3.7c0 2.4-1.2 3.8-2.8 3.8s-2.8-1.4-2.8-3.8zm4.5 0c0-1.7-.7-2.7-1.7-2.7s-1.7 1-1.7 2.7c0 1.8.7 2.8 1.7 2.8 1 .1 1.7-1 1.7-2.8zm3.6 3.1l-.1.6h-.9v-7.8h1.1v3.1c.5-.5 1.1-.8 1.7-.8 1.4 0 2.2 1.1 2.2 2.7 0 1.8-1.1 2.9-2.4 2.9-.5 0-1.1-.3-1.6-.7zm2.9-2.2c0-1.1-.4-1.8-1.4-1.8-.4 0-.9.2-1.4.7v2.5c.4.4 1 .5 1.3.5.8.1 1.5-.6 1.5-1.9zm2.3 4.7l.3-.8c.4.2.8.3 1.2.3 1 0 1.3-.5 1.3-1.4v-4.6h-2.4v-.8h3.5v5.4c0 1.3-.5 2.3-2.3 2.3-.6 0-1.2-.1-1.6-.4zm2.4-9.1c0-.5.3-.8.8-.8s.8.3.8.8-.3.8-.8.8-.8-.3-.8-.8zm4.3 4.5c0-1.8 1.3-2.8 2.8-2.8 1.6 0 2.5 1 2.5 2.5 0 .2 0 .5-.1.6h-4.4v-.8h3.7l-.2.3c0-1.2-.6-1.8-1.5-1.8s-1.7.7-1.7 2 .8 2 2 2c.6 0 1.1-.2 1.6-.5l.4.7c-.6.4-1.3.6-2.1.6-1.7 0-3-1-3-2.8zm6.8 0c0-1.8 1.4-2.8 3-2.8.9 0 1.5.3 2 .8l-.5.7c-.4-.4-.9-.6-1.4-.6-1.2 0-2 .8-2 1.9 0 1.2.8 1.9 1.9 1.9.6 0 1.2-.3 1.6-.6l.5.7c-.6.5-1.4.8-2.2.8-1.7 0-2.9-1-2.9-2.8zm7.9.6v-2.4h-1.5v-.8l1.5-.1.1-1.7h.9v1.7h2.5v.9h-2.5v2.4c0 .9.3 1.4 1.3 1.4a3.73 3.73 0 0 0 1.2-.2l.2.8c-.5.2-1 .3-1.7.3-1.5-.1-2-1-2-2.3zm-64 72h1.8c2.1 0 3.4 1.2 3.4 3.6 0 2.3-1.2 3.6-3.3 3.6h-1.9v-7.2zm1.8 6.3c1.5 0 2.3-.9 2.3-2.7s-.8-2.7-2.3-2.7h-.7v5.4h.7zm4.6-1.8c0-1.8 1.3-2.8 2.8-2.8 1.6 0 2.5 1 2.5 2.5v.6H755v-.8h3.7l-.2.3c0-1.2-.6-1.8-1.5-1.8s-1.7.7-1.7 2 .8 2 2 2c.6 0 1.1-.2 1.6-.5l.4.7c-.6.4-1.3.6-2.1.6-1.7 0-3-1-3-2.8zm8.5.8v-5h-1.8v-.9h2.9v6c0 .7.4 1 1 1 .3 0 .6-.1 1-.2l.3.8c-.5.2-.9.3-1.5.3-1.3 0-1.9-.7-1.9-2zm4.7-.8c0-1.8 1.3-2.8 2.8-2.8 1.6 0 2.5 1 2.5 2.5v.6h-4.4v-.8h3.7l-.2.3c0-1.2-.6-1.8-1.5-1.8s-1.7.7-1.7 2 .8 2 2 2c.6 0 1.1-.2 1.6-.5l.4.7c-.6.4-1.3.6-2.1.6-1.8 0-3.1-1-3.1-2.8zm8.1.6V312H774v-.8l1.5-.1.1-1.7h.9v1.7h2.5v.9h-2.5v2.4c0 .9.3 1.4 1.3 1.4a3.73 3.73 0 0 0 1.2-.2l.2.8c-.5.2-1 .3-1.7.3-1.5-.1-2-1-2-2.3zm5.1-.6c0-1.8 1.3-2.8 2.8-2.8 1.6 0 2.5 1 2.5 2.5 0 .2 0 .5-.1.6h-4.4v-.8h3.7l-.2.3c0-1.2-.6-1.8-1.5-1.8s-1.7.7-1.7 2 .8 2 2 2c.6 0 1.1-.2 1.6-.5l.4.7c-.6.4-1.3.6-2.1.6-1.7 0-3-1-3-2.8zm6.4-1c0-2.3 1.2-3.7 2.8-3.7s2.8 1.4 2.8 3.7c0 2.4-1.2 3.8-2.8 3.8s-2.8-1.4-2.8-3.8zm4.5 0c0-1.7-.7-2.7-1.7-2.7s-1.7 1-1.7 2.7c0 1.8.7 2.8 1.7 2.8s1.7-1 1.7-2.8zm3.6 3.1l-.1.6h-.9v-7.8h1.1v3.1c.5-.5 1.1-.8 1.7-.8 1.4 0 2.2 1.1 2.2 2.7 0 1.8-1.1 2.9-2.4 2.9-.5 0-1.1-.3-1.6-.7zm2.9-2.2c0-1.1-.4-1.8-1.4-1.8-.4 0-.9.2-1.4.7v2.5c.4.4 1 .5 1.3.5.8.1 1.5-.6 1.5-1.9zm2.3 4.7l.3-.8c.4.2.8.3 1.2.3 1 0 1.3-.5 1.3-1.4V312h-2.4v-.9h3.5v5.4c0 1.3-.5 2.3-2.3 2.3-.6 0-1.2-.1-1.6-.4zm2.4-9.1c0-.5.3-.8.8-.8s.8.3.8.8-.3.8-.8.8c-.4-.1-.8-.4-.8-.8zm4.3 4.5c0-1.8 1.3-2.8 2.8-2.8 1.6 0 2.5 1 2.5 2.5v.6h-4.4v-.8h3.7l-.2.3c0-1.2-.6-1.8-1.5-1.8s-1.7.7-1.7 2 .8 2 2 2c.6 0 1.1-.2 1.6-.5l.4.7c-.6.4-1.3.6-2.1.6-1.8 0-3.1-1-3.1-2.8zm6.7 0c0-1.8 1.4-2.8 3-2.8.9 0 1.5.3 2 .8l-.5.7c-.4-.4-.9-.6-1.4-.6-1.2 0-2 .8-2 1.9 0 1.2.8 1.9 1.9 1.9.6 0 1.2-.3 1.6-.6l.5.7c-.6.5-1.4.8-2.2.8-1.6 0-2.9-1-2.9-2.8zm8 .6V312h-1.5v-.8l1.5-.1.1-1.7h.9v1.7h2.5v.9h-2.5v2.4c0 .9.3 1.4 1.3 1.4a3.73 3.73 0 0 0 1.2-.2l.2.8c-.5.2-1 .3-1.7.3-1.5-.1-2-1-2-2.3z" class="B D"/><path d="M552.1 98.8h9.5v27.9h-9.5zm-11.5.3l-19.3 11.8c-.3.2-.6.2-.9 0l-19.3-11.8c-.4-.3-.9-.4-1.4-.4-1.5 0-2.6 1.2-2.6 2.6v25.4h9.5v-12c0-.7.8-1.2 1.4-.8l10.8 6.6c1.1.7 2.4.7 3.5 0l11.4-6.7c.6-.4 1.4.1 1.4.8v12.1h9.5v-25.4c0-1.5-1.2-2.6-2.6-2.6-.5 0-.9.1-1.4.4zm68.6-.3h-9.7v12.8c0 .7-.8 1.2-1.4.8l-25-13.3c-.4-.2-.8-.3-1.2-.3-1.5 0-2.6 1.2-2.6 2.6v25.2h9.6V114c0-.7.8-1.2 1.4-.8l25.1 13.3c.4.2.8.3 1.2.3 1.5 0 2.6-1.2 2.6-2.6V98.8zm7.7 27.9V98.8h4.4v27.9h-4.4zm29.9.6c-11.8 0-20.1-5.6-20.1-14.6 0-8.9 8.4-14.6 20.1-14.6s20.2 5.6 20.2 14.6-8.2 14.6-20.2 14.6zm0-25.4c-8.8 0-15.5 3.8-15.5 10.8 0 7.1 6.7 10.8 15.5 10.8s15.6-3.8 15.6-10.8c0-6.9-6.8-10.8-15.6-10.8z" fill="#c52e48" class="B"/><path stroke-width="3" d="M448 70.5h268.1v316.9H448z" class="H"/><g class="E"><path d="M484.9 212.3h87.5v29.2h-87.5z" class="B C F"/><use xlink:href="#B"/><circle cx="528.4" cy="226.6" r="4.2"/><path d="M484.9 247.9h87.5v29.2h-87.5z" class="B C F"/><use xlink:href="#B" y="35.6"/><circle cx="528.4" cy="262.2" r="4.2"/><path d="M484.9 283.5h87.5v29.2h-87.5z" class="B C F"/><use xlink:href="#B" y="71.1"/><circle cx="528.4" cy="297.7" r="4.2"/><path d="M484.9 319h87.5v29.2h-87.5z" class="B C F"/><use xlink:href="#B" y="106.7"/><circle cx="528.4" cy="333.3" r="4.2"/><path d="M591.6 212.3h87.5v29.2h-87.5z" class="B C F"/><use xlink:href="#C"/><circle cx="635.1" cy="226.6" r="4.2"/><path d="M591.6 247.9h87.5v29.2h-87.5z" class="B C F"/><use xlink:href="#C" y="35.6"/><circle cx="635.1" cy="262.2" r="4.2"/><path d="M591.6 283.5h87.5v29.2h-87.5z" class="B C F"/><use xlink:href="#C" y="71.1"/><circle cx="635.1" cy="297.7" r="4.2"/><path d="M591.6 319h87.5v29.2h-87.5z" class="B C F"/><use xlink:href="#C" y="106.7"/><circle cx="635.1" cy="333.3" r="4.2"/></g><path d="M561.1 147.6h-4.3v11.3h-2.1v-11.3h-4.3v-2h10.8v2zm8.7 6.7v.7H563c.3 1.6 1.4 2.3 2.7 2.3.9 0 1.9-.4 2.6-1l1 1.4c-1.1 1-2.4 1.3-3.7 1.3-2.7 0-4.7-1.9-4.7-4.8s1.9-4.8 4.5-4.8c2.6.1 4.4 2.1 4.4 4.9zm-6.8-.8h4.7c-.2-1.4-1-2.2-2.3-2.2-1.4 0-2.1.9-2.4 2.2zm17.7-.3v5.7h-2v-5.1c0-1.5-.8-2.4-2.1-2.4s-2.4.8-2.4 2.4v5h-2v-9.1h2v1.1c.7-1.1 1.9-1.3 2.8-1.3 2.2 0 3.7 1.5 3.7 3.7zm11.8 5.7h-2v-1.1c-.6.8-1.6 1.3-2.9 1.3-2.5 0-4.6-2-4.6-4.8s2-4.8 4.6-4.8c1.3 0 2.2.5 2.9 1.3v-1.1h2v9.2zm-7.4-4.6c0 1.6 1 2.9 2.7 2.9 1.6 0 2.7-1.3 2.7-2.9 0-1.7-1.1-2.9-2.7-2.9s-2.7 1.3-2.7 2.9zm19-1.1v5.7h-2v-5.1c0-1.5-.8-2.4-2.1-2.4s-2.4.8-2.4 2.4v5h-2v-9.1h2v1.1c.7-1.1 1.9-1.3 2.8-1.3 2.1 0 3.7 1.5 3.7 3.7zm9.1-1.6h-3.5v4c0 1.2.6 1.7 1.4 1.7.6 0 1.3-.3 1.8-.6l.8 1.6c-.7.5-1.7.9-2.8.9-2.1 0-3.3-1.1-3.3-3.5v-4h-1.8v-1.8h1.8V147h2v2.8h3.5v1.8h.1z" class="B D"/><path d="M307.1 224H440" class="E G"/><path d="M438.3 229.6l9.8-5.6-9.8-5.6z" class="B D"/><path d="M315.1 146.9h133" class="E G"/><path d="M316.8 152.5l-9.7-5.6 9.7-5.6z" class="B D"/><path d="M307.1 301.1H440" class="E G"/><path d="M438.3 306.7l9.8-5.6-9.8-5.6z" class="B D"/><path d="M50.2 95.4h257v257.3h-257z" class="C H"/><g class="B D"><path d="M116.8 144.8h-1.2v-10.5h1.2zm9.3-4.5v4.4H125v-4c0-1.4-.8-2.1-2-2.1s-2.2.8-2.2 2.2v4h-1.1v-7.1h1.1v1a2.98 2.98 0 0 1 2.4-1.2c1.6 0 2.9 1.1 2.9 2.8zm7.2-1.6h-3.1v3.6c0 1.1.6 1.6 1.4 1.6.5 0 1.1-.2 1.5-.5l.5.8c-.5.4-1.2.7-2.1.7-1.5 0-2.4-.8-2.4-2.6v-3.6h-1.6v-1h1.6v-2.3h1.1v2.3h3.1v1zm8.3 2.5v.4h-5.7c.2 1.5 1.2 2.3 2.5 2.3.9 0 1.6-.3 2.3-.9l.6.8a4.23 4.23 0 0 1-2.9 1.1c-2.1 0-3.6-1.5-3.6-3.7s1.5-3.7 3.5-3.7c1.9 0 3.3 1.5 3.3 3.7zm-5.7-.5h4.6c-.1-1.3-1-2.2-2.2-2.2-1.4 0-2.2.9-2.4 2.2zm12.3-3l-.3 1.1c-.3-.2-.8-.3-1.2-.3-1.1 0-1.9.9-1.9 2.2v4h-1.1v-7.1h1.1v1c.5-.7 1.2-1.1 2.1-1.1.5 0 .9.1 1.3.2zm8.2 2.6v4.4h-1.1v-4c0-1.4-.8-2.1-2-2.1s-2.2.8-2.2 2.2v4H150v-7.1h1.1v1a2.98 2.98 0 0 1 2.4-1.2c1.7 0 2.9 1.1 2.9 2.8zm8.8.9v.4h-5.7c.2 1.5 1.2 2.3 2.5 2.3.9 0 1.6-.3 2.3-.9l.6.8a4.23 4.23 0 0 1-2.9 1.1c-2.1 0-3.6-1.5-3.6-3.7s1.5-3.7 3.5-3.7c1.9 0 3.3 1.5 3.3 3.7zm-5.7-.5h4.6c-.1-1.3-1-2.2-2.2-2.2-1.3 0-2.2.9-2.4 2.2zm12.6-2H169v3.6c0 1.1.6 1.6 1.4 1.6.5 0 1.1-.2 1.5-.5l.5.8c-.5.4-1.2.7-2.1.7-1.5 0-2.4-.8-2.4-2.6v-3.6h-1.6v-1h1.6v-2.3h1.1v2.3h3.1v1zm12.9 2.5c0 2.1-1.6 3.7-3.7 3.7s-3.7-1.6-3.7-3.7 1.6-3.7 3.7-3.7 3.7 1.6 3.7 3.7zm-6.4 0c0 1.5 1.1 2.7 2.6 2.7s2.6-1.1 2.6-2.7c0-1.5-1.1-2.6-2.6-2.6-1.4-.1-2.6 1.1-2.6 2.6zm13.1-2.5h-2.8v6.1h-1.1v-6.1h-1.6v-1h1.6v-1.2c0-1.5.7-2.6 2.4-2.6.8 0 1.4.2 1.9.5l-.4.9c-.4-.2-.9-.4-1.5-.4-.9 0-1.3.6-1.3 1.6v1.2h2.8v1zm12.9-3.3H201v9.4h-1.2v-9.4h-3.6v-1.1h8.5v1.1zm2.7 3.2c.6-.8 1.5-1.1 2.4-1.1 1.8 0 3 1.1 3 2.8v4.4h-1.1v-4c0-1.4-.8-2.1-2-2.1s-2.2.8-2.2 2.2v4h-1.1V134h1.1v4.6h-.1zm9.2-3.5c0 .4-.4.8-.8.8-.5 0-.8-.3-.8-.8s.3-.8.8-.8.8.4.8.8zm-.2 9.7h-1.1v-7.1h1.1v7.1zm9.1-4.5v4.4h-1.1v-4c0-1.4-.8-2.1-2-2.1s-2.2.8-2.2 2.2v4H219v-7.1h1.1v1a2.98 2.98 0 0 1 2.4-1.2c1.7 0 2.9 1.1 2.9 2.8zm8-1.6v-1.1h1.1v6.6c0 2.3-1.6 3.6-3.8 3.6-1.1 0-2.3-.4-3-1l.5-.9c.7.5 1.5.8 2.5.8 1.5 0 2.6-.9 2.6-2.5v-.7c-.5.7-1.4 1.2-2.5 1.2-2 0-3.5-1.5-3.5-3.6s1.5-3.6 3.5-3.6c1.2 0 2.1.5 2.6 1.2zm-4.9 2.4c0 1.4 1 2.6 2.5 2.6s2.5-1.1 2.5-2.6-1-2.6-2.5-2.6-2.5 1.2-2.5 2.6zm13.5-1.9c-.5-.3-1.4-.7-2.3-.7-1 0-1.7.4-1.7 1.1 0 .6.5.9 1.4 1l.8.1c1.5.2 2.4.8 2.4 2 0 1.4-1.2 2.2-3.1 2.2-.9 0-2.1-.2-3-.9l.5-.8c.5.4 1.3.8 2.5.8s2-.4 2-1.1c0-.6-.5-.9-1.5-1l-.8-.1c-1.6-.2-2.3-.9-2.3-2 0-1.3 1.1-2.2 2.8-2.2 1.1 0 2.1.3 2.8.8l-.5.8zm-114.2 62.6h-1.5l-2.9-8.9-2.9 8.9H119l-3.4-10.5h1.3l2.9 9.1 3-9.1h1.4l3 9.2 2.9-9.2h1.2zm10.7-3.6v.4h-5.7c.2 1.5 1.2 2.3 2.5 2.3.9 0 1.6-.3 2.3-.9l.6.8a4.23 4.23 0 0 1-2.9 1.1c-2.1 0-3.6-1.5-3.6-3.7s1.5-3.7 3.5-3.7c1.9 0 3.3 1.6 3.3 3.7zm-5.7-.5h4.6c-.1-1.3-1-2.2-2.2-2.2-1.3 0-2.2.9-2.4 2.2zm15.1.5c0 2.1-1.6 3.7-3.6 3.7-1.2 0-2-.5-2.6-1.2v1.1h-1.1V191h1.1v4.8c.6-.7 1.4-1.2 2.6-1.2 2-.1 3.6 1.5 3.6 3.6zm-6.2 0c0 1.5 1 2.7 2.5 2.7s2.5-1.2 2.5-2.7-1-2.6-2.5-2.6-2.5 1.1-2.5 2.6zm21.1 3.6h-1.3l-1.2-2.9h-5.2l-1.2 2.9h-1.3l4.3-10.5h1.5l4.4 10.5zm-7.2-4.1h4.3l-2.1-5.2-2.2 5.2zm16.1.5c0 2.1-1.6 3.7-3.6 3.7-1.2 0-2-.5-2.6-1.2v4.1h-1.1v-10.1h1.1v1.1c.6-.7 1.4-1.2 2.6-1.2 2-.1 3.6 1.5 3.6 3.6zm-6.3 0c0 1.5 1 2.7 2.5 2.7s2.5-1.2 2.5-2.7-1-2.6-2.5-2.6c-1.4 0-2.5 1.1-2.5 2.6zm15.6 0c0 2.1-1.6 3.7-3.6 3.7-1.2 0-2-.5-2.6-1.2v4.1h-1.1v-10.1h1.1v1.1c.6-.7 1.4-1.2 2.6-1.2 2.1-.1 3.6 1.5 3.6 3.6zm-6.2 0c0 1.5 1 2.7 2.5 2.7s2.5-1.2 2.5-2.7-1-2.6-2.5-2.6-2.5 1.1-2.5 2.6zm9.4 3.6h-1.1V191h1.1zm4-9.6c0 .5-.4.8-.8.8-.5 0-.8-.3-.8-.8 0-.4.3-.8.8-.8.4 0 .8.3.8.8zm-.2 9.6h-1.1v-7.1h1.1v7.1zm8.4-6.1l-.7.8c-.5-.5-1.2-.8-1.9-.8-1.4 0-2.5 1.1-2.5 2.6s1.1 2.7 2.5 2.7c.8 0 1.5-.3 2-.8l.7.8c-.6.7-1.6 1.1-2.6 1.1-2.2 0-3.7-1.6-3.7-3.7s1.5-3.7 3.7-3.7c.9-.2 1.8.2 2.5 1zm8.5 6.1h-1.1v-1.1c-.6.7-1.4 1.2-2.6 1.2-2 0-3.6-1.6-3.6-3.7s1.6-3.7 3.6-3.7c1.2 0 2 .5 2.6 1.2v-1.1h1.1v7.2zm-6.2-3.6c0 1.5 1 2.7 2.5 2.7s2.5-1.1 2.5-2.7c0-1.5-1.1-2.6-2.5-2.6s-2.5 1.2-2.5 2.6zm13.6-2.5h-3.1v3.6c0 1.1.6 1.6 1.4 1.6.5 0 1.1-.2 1.5-.5l.5.8c-.5.4-1.2.7-2.1.7-1.5 0-2.4-.8-2.4-2.6v-3.6h-1.6v-1h1.6v-2.3h1.1v2.3h3.1v1zm3.3-3.5c0 .5-.4.8-.8.8-.5 0-.8-.3-.8-.8 0-.4.3-.8.8-.8s.8.3.8.8zm-.2 9.6h-1.1v-7.1h1.1v7.1zm9.6-3.6c0 2.1-1.6 3.7-3.7 3.7s-3.7-1.6-3.7-3.7 1.6-3.7 3.7-3.7 3.7 1.6 3.7 3.7zm-6.4 0c0 1.5 1.1 2.7 2.6 2.7s2.6-1.1 2.6-2.7c0-1.5-1.1-2.6-2.6-2.6s-2.6 1.1-2.6 2.6zm14.9-.8v4.4h-1.1v-4c0-1.4-.8-2.1-2-2.1s-2.2.8-2.2 2.2v4H227v-7.1h1.1v1a2.98 2.98 0 0 1 2.4-1.2c1.8-.1 3 1.1 3 2.8zm7.3-1.2c-.5-.3-1.4-.7-2.3-.7-1 0-1.7.4-1.7 1.1 0 .6.5.9 1.4 1l.8.1c1.5.2 2.4.8 2.4 2 0 1.4-1.2 2.2-3.1 2.2-.9 0-2.1-.2-3-.9l.5-.8c.5.4 1.3.8 2.5.8s2-.4 2-1.1c0-.6-.5-.9-1.5-1l-.8-.1c-1.6-.2-2.3-.9-2.3-2 0-1.3 1.1-2.2 2.8-2.2 1.1 0 2.1.3 2.8.8l-.5.8z"/><path d="M120.8 248.3c2.2 0 3.8.8 3.8 2.8 0 1.2-.6 2-1.6 2.3 1.1.3 1.8 1.2 1.8 2.5 0 2-1.5 2.9-3.8 2.9h-4.3v-10.5h4.1zm-2.8 1.2v3.5h2.8c1.4 0 2.6-.3 2.6-1.8 0-1.4-1.1-1.7-2.6-1.7H118zm0 4.6v3.6h3c1.6 0 2.6-.4 2.6-1.8s-1-1.8-2.6-1.8h-3zm15.8 4.7h-1.1v-1.1c-.6.7-1.4 1.2-2.6 1.2-2 0-3.6-1.6-3.6-3.7s1.6-3.7 3.6-3.7c1.2 0 2 .5 2.6 1.2v-1.1h1.1v7.2zm-6.1-3.5c0 1.5 1 2.7 2.5 2.7s2.5-1.1 2.5-2.7c0-1.5-1.1-2.6-2.5-2.6-1.5-.1-2.5 1.1-2.5 2.6zm14.5-2.6l-.7.8c-.5-.5-1.2-.8-1.9-.8-1.4 0-2.5 1.1-2.5 2.6s1.1 2.7 2.5 2.7c.8 0 1.5-.3 2-.8l.7.8c-.6.7-1.6 1.1-2.6 1.1-2.2 0-3.7-1.6-3.7-3.7s1.5-3.7 3.7-3.7c.9-.1 1.9.3 2.5 1zm3 1.9h1l2.7-2.9h1.4l-3.2 3.3 3.3 3.8H149l-2.8-3.2h-1v3.2h-1.1V248h1.1zm13.2 1.3c0 2.1-1.5 3.1-3.2 3.1s-3.2-1-3.2-3.1v-4.1h1.1v4c0 1.5.9 2.2 2.1 2.2s2.1-.7 2.1-2.2v-4h1.1v4.1zm9.8-.6c0 2.1-1.6 3.7-3.6 3.7-1.2 0-2-.5-2.6-1.2v4.1h-1v-10.1h1.1v1.1c.6-.7 1.4-1.2 2.6-1.2 2-.1 3.5 1.4 3.5 3.6zm-6.2 0c0 1.5 1 2.7 2.5 2.7s2.5-1.2 2.5-2.7-1-2.6-2.5-2.6c-1.4-.1-2.5 1.1-2.5 2.6zm12.2 5H173l6.4-13.1h1.2zm20.4-1.5h-1.3l-1.2-2.9h-5.2l-1.2 2.9h-1.3l4.3-10.5h1.5l4.4 10.5zm-7.2-4h4.3l-2.1-5.2-2.2 5.2zm13.3-3l-.3 1.1c-.3-.2-.8-.3-1.2-.3-1.1 0-1.9.9-1.9 2.2v4h-1.1v-7.1h1.1v1c.5-.7 1.2-1.1 2.1-1.1.5 0 .9.1 1.3.2zm7.2.9l-.7.8c-.5-.5-1.2-.8-1.9-.8-1.4 0-2.5 1.1-2.5 2.6s1.1 2.7 2.5 2.7c.8 0 1.5-.3 2-.8l.7.8c-.6.7-1.6 1.1-2.6 1.1-2.2 0-3.7-1.6-3.7-3.7s1.5-3.7 3.7-3.7c.9-.1 1.8.3 2.5 1zm3 0c.6-.8 1.5-1.1 2.4-1.1 1.8 0 3 1.1 3 2.8v4.4h-1.1v-4c0-1.4-.8-2.1-2-2.1s-2.2.8-2.2 2.2v4h-1.1V248h1.1v4.7h-.1zm9.3-3.5c0 .5-.4.8-.8.8-.5 0-.8-.3-.8-.8 0-.4.3-.8.8-.8.4 0 .8.4.8.8zm-.3 9.6h-1.1v-7.1h1.1v7.1zm5.9.1h-1.3l-3-7.1h1.2l2.5 6 2.5-6h1.2zm11.2-.1h-1.1v-1.1c-.6.7-1.4 1.2-2.6 1.2-2 0-3.6-1.6-3.6-3.7s1.6-3.7 3.6-3.7c1.2 0 2 .5 2.6 1.2v-1.1h1.1v7.2zm-6.1-3.5c0 1.5 1 2.7 2.5 2.7s2.5-1.1 2.5-2.7c0-1.5-1.1-2.6-2.5-2.6-1.5-.1-2.5 1.1-2.5 2.6zm9.8 3.5h-1.1V248h1.1zm-107.2 46.6c2.2 0 3.8.8 3.8 2.8 0 1.2-.6 2-1.6 2.3 1.1.3 1.8 1.2 1.8 2.5 0 2-1.5 2.9-3.8 2.9h-4.3v-10.5h4.1zm-2.9 1.1v3.5h2.8c1.4 0 2.6-.3 2.6-1.8 0-1.4-1.1-1.7-2.6-1.7h-2.8zm0 4.6v3.6h3c1.6 0 2.6-.4 2.6-1.8s-1-1.8-2.6-1.8h-3zm10.2 4.8h-1.1v-10.8h1.1zm9.6-3.6c0 2.1-1.6 3.7-3.7 3.7s-3.7-1.6-3.7-3.7 1.6-3.7 3.7-3.7 3.7 1.6 3.7 3.7zm-6.3 0c0 1.5 1.1 2.7 2.6 2.7s2.6-1.1 2.6-2.7c0-1.5-1.1-2.6-2.6-2.6s-2.6 1.1-2.6 2.6zm14.2-2.5l-.7.8c-.5-.5-1.2-.8-1.9-.8-1.4 0-2.5 1.1-2.5 2.6s1.1 2.7 2.5 2.7c.8 0 1.5-.3 2-.8l.7.8c-.6.7-1.6 1.1-2.6 1.1-2.2 0-3.7-1.6-3.7-3.7s1.5-3.7 3.7-3.7c.9-.2 1.8.2 2.5 1zm3 1.9h1l2.7-2.9h1.4l-3.2 3.3 3.3 3.8h-1.4l-2.8-3.2h-1v3.2h-1.1v-10.8h1.1zm17.8-4.3c-.8-.6-1.9-1-3.2-1-1.6 0-2.7.7-2.7 1.9 0 1 .8 1.5 2.4 1.7l1 .1c1.7.2 3.3.9 3.3 2.8 0 2.1-1.9 3.2-4.2 3.2-1.5 0-3.1-.5-4.1-1.4l.7-1c.7.6 2.1 1.2 3.5 1.2 1.6 0 2.9-.7 2.9-1.9 0-1-.9-1.5-2.5-1.7l-1.1-.1c-1.8-.2-3.1-1-3.1-2.8 0-2 1.8-3.1 4-3.1 1.6 0 2.8.5 3.8 1.1l-.7 1zm7.7 2.4h-3.1v3.6c0 1.1.6 1.6 1.4 1.6.5 0 1.1-.2 1.5-.5l.5.8c-.5.4-1.2.7-2.1.7-1.5 0-2.4-.8-2.4-2.6v-3.6H181v-1h1.6v-2.3h1.1v2.3h3.1v1zm8.9 2.5c0 2.1-1.6 3.7-3.7 3.7s-3.7-1.6-3.7-3.7 1.6-3.7 3.7-3.7 3.7 1.6 3.7 3.7zm-6.3 0c0 1.5 1.1 2.7 2.6 2.7s2.6-1.1 2.6-2.7c0-1.5-1.1-2.6-2.6-2.6s-2.6 1.1-2.6 2.6zm12.9-3.4l-.3 1.1c-.3-.2-.8-.3-1.2-.3-1.1 0-1.9.9-1.9 2.2v4h-1.1v-7.1h1.1v1c.5-.7 1.2-1.1 2.1-1.1.5-.1.9 0 1.3.2zm8.1 7h-1.1v-1.1c-.6.7-1.4 1.2-2.6 1.2-2 0-3.6-1.6-3.6-3.7s1.6-3.7 3.6-3.7c1.2 0 2 .5 2.6 1.2v-1.1h1.1v7.2zm-6.1-3.6c0 1.5 1 2.7 2.5 2.7s2.5-1.1 2.5-2.7c0-1.5-1.1-2.6-2.5-2.6-1.5 0-2.5 1.2-2.5 2.6zm14.3-2.5v-1.1h1.1v6.6c0 2.3-1.6 3.6-3.8 3.6-1.1 0-2.3-.4-3-1l.5-.9c.7.5 1.5.8 2.5.8 1.5 0 2.6-.9 2.6-2.5v-.7c-.5.7-1.4 1.2-2.5 1.2-2 0-3.5-1.5-3.5-3.6s1.5-3.6 3.5-3.6c1.2 0 2 .5 2.6 1.2zm-4.9 2.5c0 1.4 1 2.6 2.5 2.6s2.5-1.1 2.5-2.6-1-2.6-2.5-2.6-2.5 1.1-2.5 2.6zm14.9 0v.4h-5.7c.2 1.5 1.2 2.3 2.5 2.3.9 0 1.6-.3 2.3-.9l.6.8a4.23 4.23 0 0 1-2.9 1.1c-2.1 0-3.6-1.5-3.6-3.7s1.5-3.7 3.5-3.7c1.9 0 3.3 1.5 3.3 3.7zm-5.7-.5h4.6c-.1-1.3-1-2.2-2.2-2.2-1.3 0-2.2.9-2.4 2.2z"/></g><path d="M68.9 124.7h219.6v31.1H68.9zm0 57.1h219.6v31.1H68.9zm0 57h219.6v31.1H68.9zm0 57.1h219.6V327H68.9z" class="E"/><path d="M348.4 158.7c0-2.3 1.4-3.7 3.2-3.7 1 0 1.6.4 2 .9l-.6.7c-.3-.3-.7-.6-1.4-.6-1.2 0-2.1 1-2.1 2.7s.7 2.8 2.1 2.8c.4 0 .9-.1 1.1-.4v-1.7h-1.3v-.9h2.3v3.1c-.5.5-1.2.8-2.2.8-1.7 0-3.1-1.3-3.1-3.7zm6.8.9c0-1.8 1.3-2.8 2.8-2.8 1.6 0 2.5 1 2.5 2.5v.6h-4.4v-.8h3.7l-.2.3c0-1.2-.6-1.8-1.5-1.8s-1.7.7-1.7 2 .8 2 2 2c.6 0 1.1-.2 1.6-.5l.4.7c-.6.4-1.3.6-2.1.6-1.8 0-3.1-1-3.1-2.8zm8 .6v-2.4h-1.5v-.8l1.5-.1.1-1.7h.9v1.7h2.5v.9h-2.5v2.4c0 .9.3 1.4 1.3 1.4a3.73 3.73 0 0 0 1.2-.2l.2.8c-.5.2-1 .3-1.7.3-1.4-.1-2-1-2-2.3zm5-1.5c0-2.3 1.2-3.7 2.8-3.7s2.8 1.4 2.8 3.7c0 2.4-1.2 3.8-2.8 3.8-1.7-.1-2.8-1.5-2.8-3.8zm4.4 0c0-1.7-.7-2.7-1.7-2.7s-1.7 1-1.7 2.7c0 1.8.7 2.8 1.7 2.8 1.1 0 1.7-1.1 1.7-2.8zm3.6 3l-.1.6h-.9v-7.8h1.1v3.1c.5-.5 1.1-.8 1.7-.8 1.4 0 2.2 1.1 2.2 2.7 0 1.8-1.1 2.9-2.4 2.9-.5 0-1.1-.2-1.6-.7zm2.9-2.2c0-1.1-.4-1.8-1.4-1.8-.4 0-.9.2-1.4.7v2.5c.4.4 1 .5 1.3.5.9.1 1.5-.6 1.5-1.9zm2.3 4.8l.3-.8c.4.2.8.3 1.2.3 1 0 1.3-.5 1.3-1.4v-4.6h-2.4v-.9h3.5v5.4c0 1.3-.5 2.3-2.3 2.3-.6 0-1.1-.1-1.6-.3zm2.5-9.2c0-.5.3-.8.8-.8s.8.3.8.8-.3.8-.8.8-.8-.3-.8-.8zm4.3 4.5c0-1.8 1.3-2.8 2.8-2.8 1.6 0 2.5 1 2.5 2.5v.6h-4.4v-.8h3.7l-.2.3c0-1.2-.6-1.8-1.5-1.8s-1.7.7-1.7 2 .8 2 2 2c.6 0 1.1-.2 1.6-.5l.4.7c-.6.4-1.3.6-2.1.6-1.8 0-3.1-1-3.1-2.8zm6.7 0c0-1.8 1.4-2.8 3-2.8.9 0 1.5.3 2 .8l-.5.7c-.4-.4-.9-.6-1.4-.6-1.2 0-2 .8-2 1.9 0 1.2.8 1.9 1.9 1.9.6 0 1.2-.3 1.6-.6l.5.7c-.6.5-1.4.8-2.2.8-1.6 0-2.9-1-2.9-2.8zm7.9.6v-2.4h-1.5v-.8l1.5-.1.1-1.7h.9v1.7h2.5v.9h-2.5v2.4c0 .9.3 1.4 1.3 1.4a3.73 3.73 0 0 0 1.2-.2l.2.8c-.5.2-1 .3-1.7.3-1.4-.1-2-1-2-2.3zm-53.9 72h2.3c1.6 0 2.7.5 2.7 2.2 0 1.6-1.1 2.3-2.7 2.3H350v2.8h-1.1v-7.3zm2.2 3.5c1.2 0 1.7-.4 1.7-1.4s-.6-1.3-1.7-1.3H350v2.7h1.1zm4.2 1.6V234h1.1v3.2c0 .9.3 1.4 1.1 1.4.6 0 1-.2 1.5-.9V234h1.1v5.4h-.9l-.1-.9c-.5.6-1.1 1-2 1-1.3 0-1.8-.8-1.8-2.2zm7.9 0v-2.4h-1.5v-.8l1.5-.1.1-1.7h.9v1.7h2.5v.9h-2.5v2.4c0 .9.3 1.4 1.3 1.4a3.73 3.73 0 0 0 1.2-.2l.2.8c-.5.2-1 .3-1.7.3-1.4-.1-2-1-2-2.3zm5-1.6c0-2.3 1.2-3.7 2.8-3.7s2.8 1.4 2.8 3.7c0 2.4-1.2 3.8-2.8 3.8-1.7 0-2.8-1.4-2.8-3.8zm4.4 0c0-1.7-.7-2.7-1.7-2.7s-1.7 1-1.7 2.7c0 1.8.7 2.8 1.7 2.8 1.1.1 1.7-1 1.7-2.8zm3.6 3.1l-.1.6h-.9v-7.8h1.1v3.1c.5-.5 1.1-.8 1.7-.8 1.4 0 2.2 1.1 2.2 2.7 0 1.8-1.1 2.9-2.4 2.9-.5 0-1.1-.3-1.6-.7zm2.9-2.2c0-1.1-.4-1.8-1.4-1.8-.4 0-.9.2-1.4.7v2.5c.4.4 1 .5 1.3.5.9.1 1.5-.6 1.5-1.9zm2.3 4.7l.3-.8c.4.2.8.3 1.2.3 1 0 1.3-.5 1.3-1.4v-4.6h-2.4v-.8h3.5v5.4c0 1.3-.5 2.3-2.3 2.3-.6 0-1.1-.1-1.6-.4zm2.5-9.1c0-.5.3-.8.8-.8s.8.3.8.8-.3.8-.8.8-.8-.3-.8-.8zm4.3 4.5c0-1.8 1.3-2.8 2.8-2.8 1.6 0 2.5 1 2.5 2.5v.6h-4.4v-.8h3.7l-.2.3c0-1.2-.6-1.8-1.5-1.8s-1.7.7-1.7 2 .8 2 2 2c.6 0 1.1-.2 1.6-.5l.4.7c-.6.4-1.3.6-2.1.6-1.8 0-3.1-1-3.1-2.8zm6.7 0c0-1.8 1.4-2.8 3-2.8.9 0 1.5.3 2 .8l-.5.7c-.4-.4-.9-.6-1.4-.6-1.2 0-2 .8-2 1.9 0 1.2.8 1.9 1.9 1.9.6 0 1.2-.3 1.6-.6l.5.7c-.6.5-1.4.8-2.2.8-1.6 0-2.9-1-2.9-2.8zm7.9.6v-2.4h-1.5v-.8l1.5-.1.1-1.7h.9v1.7h2.5v.9h-2.5v2.4c0 .9.3 1.4 1.3 1.4a3.73 3.73 0 0 0 1.2-.2l.2.8c-.5.2-1 .3-1.7.3-1.4-.1-2-1-2-2.3zm-63.9 72h1.8c2.1 0 3.4 1.2 3.4 3.6 0 2.3-1.2 3.6-3.3 3.6h-1.9v-7.2zm1.7 6.3c1.5 0 2.3-.9 2.3-2.7s-.8-2.7-2.3-2.7h-.6v5.4h.6zm4.7-1.8c0-1.8 1.3-2.8 2.8-2.8 1.6 0 2.5 1 2.5 2.5v.6H346v-.8h3.7l-.2.3c0-1.2-.6-1.8-1.5-1.8s-1.7.7-1.7 2 .8 2 2 2c.6 0 1.1-.2 1.6-.5l.4.7c-.6.4-1.3.6-2.1.6-1.6 0-2.9-1-2.9-2.8zm8.5.8v-5H352v-.9h2.9v6c0 .7.4 1 1 1 .3 0 .6-.1 1-.2l.3.8c-.5.2-.9.3-1.5.3-1.3 0-1.9-.7-1.9-2zm4.7-.8c0-1.8 1.3-2.8 2.8-2.8 1.6 0 2.5 1 2.5 2.5 0 .2 0 .5-.1.6h-4.4v-.8h3.7l-.2.3c0-1.2-.6-1.8-1.5-1.8s-1.7.7-1.7 2 .8 2 2 2c.6 0 1.1-.2 1.6-.5l.4.7c-.6.4-1.3.6-2.1.6-1.7 0-3-1-3-2.8zm8 .6V312H365v-.8l1.5-.1.1-1.7h.9v1.7h2.5v.9h-2.5v2.4c0 .9.3 1.4 1.3 1.4a3.73 3.73 0 0 0 1.2-.2l.2.8c-.5.2-1 .3-1.7.3-1.4-.1-2-1-2-2.3zm5.2-.6c0-1.8 1.3-2.8 2.8-2.8 1.6 0 2.5 1 2.5 2.5v.6h-4.4v-.8h3.7l-.2.3c0-1.2-.6-1.8-1.5-1.8s-1.7.7-1.7 2 .8 2 2 2c.6 0 1.1-.2 1.6-.5l.4.7c-.6.4-1.3.6-2.1.6-1.8 0-3.1-1-3.1-2.8zm6.4-1c0-2.3 1.2-3.7 2.8-3.7s2.8 1.4 2.8 3.7c0 2.4-1.2 3.8-2.8 3.8s-2.8-1.4-2.8-3.8zm4.4 0c0-1.7-.7-2.7-1.7-2.7s-1.7 1-1.7 2.7c0 1.8.7 2.8 1.7 2.8 1.1 0 1.7-1 1.7-2.8zm3.6 3.1l-.1.6h-.9v-7.8h1.1v3.1c.5-.5 1.1-.8 1.7-.8 1.4 0 2.2 1.1 2.2 2.7 0 1.8-1.1 2.9-2.4 2.9-.5 0-1.1-.3-1.6-.7zm2.9-2.2c0-1.1-.4-1.8-1.4-1.8-.4 0-.9.2-1.4.7v2.5c.4.4 1 .5 1.3.5.9.1 1.5-.6 1.5-1.9zm2.3 4.7l.3-.8c.4.2.8.3 1.2.3 1 0 1.3-.5 1.3-1.4V312h-2.4v-.9h3.5v5.4c0 1.3-.5 2.3-2.3 2.3-.6 0-1.1-.1-1.6-.4zm2.5-9.1c0-.5.3-.8.8-.8s.8.3.8.8-.3.8-.8.8-.8-.4-.8-.8zm4.3 4.5c0-1.8 1.3-2.8 2.8-2.8 1.6 0 2.5 1 2.5 2.5v.6H399v-.8h3.7l-.2.3c0-1.2-.6-1.8-1.5-1.8s-1.7.7-1.7 2 .8 2 2 2c.6 0 1.1-.2 1.6-.5l.4.7c-.6.4-1.3.6-2.1.6-1.8 0-3.1-1-3.1-2.8zm6.7 0c0-1.8 1.4-2.8 3-2.8.9 0 1.5.3 2 .8l-.5.7c-.4-.4-.9-.6-1.4-.6-1.2 0-2 .8-2 1.9 0 1.2.8 1.9 1.9 1.9.6 0 1.2-.3 1.6-.6l.5.7c-.6.5-1.4.8-2.2.8-1.6 0-2.9-1-2.9-2.8zm7.9.6V312h-1.5v-.8l1.5-.1.1-1.7h.9v1.7h2.5v.9h-2.5v2.4c0 .9.3 1.4 1.3 1.4a3.73 3.73 0 0 0 1.2-.2l.2.8c-.5.2-1 .3-1.7.3-1.4-.1-2-1-2-2.3z" class="B D"/></g><defs ><path id="B" d="M489.2 216.9h5.8v20.8h-5.8zm10.5 0h5.8v20.8h-5.8zm10.4 0h5.8v20.8h-5.8zm30.8 0h5.8v20.8h-5.8zm10.4 0h5.8v20.8h-5.8zm10.5 0h5.8v20.8h-5.8z"/><path id="C" d="M595.9 216.9h5.8v20.8h-5.8zm10.5 0h5.8v20.8h-5.8zm10.4 0h5.8v20.8h-5.8zm30.8 0h5.8v20.8h-5.8zm10.4 0h5.8v20.8H658zm10.5 0h5.8v20.8h-5.8z"/></defs></svg>