<svg class="img-fluid" id="outputsvg" xmlns="http://www.w3.org/2000/svg" style="transform: matrix(0.591716, 0, 0, 0.591716, 32.1124, 51.7942); transform-origin: 50% 50% 0px; cursor: move; max-height: 334.96px; transition: transform 200ms ease-in-out 0s;" width="1128" height="840" viewBox="0 0 11280 8400"><g id="l6xf8LV1vMPeutHtjPJhIc3" fill="rgb(255,255,255)" style="transform: none;"><g><path id="pVHovtCas" d="M0 4200 l0 -4200 5640 0 5640 0 0 4200 0 4200 -5640 0 -5640 0 0 -4200z m10850 -20 l0 -3810 -5180 0 -5180 0 0 3810 0 3810 5180 0 5180 0 0 -3810z"></path><path id="pHjxQfq7V" d="M2457 7803 c-4 -3 -7 -35 -7 -69 l0 -63 -27 15 c-19 9 -60 14 -121 14 -93 0 -94 0 -126 -32 l-32 -33 -26 30 c-25 28 -31 30 -113 34 -95 3 -134 -7 -165 -46 l-19 -24 -3 28 c-3 27 -5 28 -65 31 l-63 3 0 -105 c0 -118 -11 -166 -35 -146 -11 9 -15 41 -17 128 l-3 117 -65 0 -65 0 0 -110 c0 -60 -5 -118 -11 -128 -10 -17 -11 -17 -25 -1 -9 11 -16 53 -19 128 l-5 111 -65 6 c-130 13 -331 9 -361 -7 -17 -8 -29 -10 -29 -4 0 6 -27 10 -64 10 -49 0 -65 -4 -70 -16 -3 -9 -6 -65 -6 -124 0 -60 -4 -111 -9 -114 -4 -3 -18 5 -29 17 -18 19 -22 37 -24 127 l-3 105 -62 3 -63 3 0 -189 0 -189 83 -6 c154 -12 191 -10 215 16 12 13 22 29 22 35 0 21 14 13 32 -17 20 -37 55 -44 172 -40 118 5 120 8 127 162 l5 122 2 -136 2 -136 38 -6 c20 -4 120 -6 220 -6 181 0 184 0 208 24 13 13 24 34 24 47 1 22 1 22 15 -4 8 -14 31 -36 50 -48 31 -19 47 -22 126 -18 88 3 92 4 120 36 32 36 39 39 39 18 0 -8 12 -24 26 -35 23 -18 41 -21 119 -21 78 0 96 3 119 21 19 15 26 17 26 6 0 -10 21 -16 83 -20 161 -13 189 -10 225 22 17 17 32 36 32 43 1 7 7 -2 15 -20 18 -42 48 -52 150 -52 102 0 132 10 149 52 13 29 14 30 20 10 12 -38 85 -72 153 -72 65 0 126 20 141 46 8 15 13 14 48 -10 34 -23 49 -26 119 -26 91 0 120 11 152 59 20 30 23 46 23 141 0 95 -3 111 -23 141 -32 47 -61 59 -150 59 -80 0 -105 -7 -144 -42 -18 -17 -22 -18 -30 -5 -4 9 -22 23 -38 31 -40 21 -172 22 -202 1 -18 -13 -22 -13 -26 -1 -5 12 -36 15 -153 15 -148 0 -195 -9 -207 -41 -3 -9 -13 -5 -31 12 -23 21 -39 25 -102 28 l-74 4 0 54 0 54 -58 0 c-32 0 -62 -3 -65 -7z m-452 -243 c4 -6 -5 -10 -20 -10 -15 0 -24 4 -20 10 3 6 12 10 20 10 8 0 17 -4 20 -10z m649 -15 c40 -62 -7 -154 -50 -97 -26 34 -10 122 22 122 7 0 19 -11 28 -25z m649 -5 c10 -27 16 -30 54 -30 32 0 43 -4 43 -15 0 -11 -12 -15 -45 -15 -32 0 -45 -4 -45 -14 0 -7 -7 -20 -16 -27 -14 -11 -19 -10 -35 10 -23 29 -25 78 -2 103 23 25 33 23 46 -12z m302 20 c4 -6 -5 -10 -20 -10 -15 0 -24 4 -20 10 3 6 12 10 20 10 8 0 17 -4 20 -10z"></path><path id="pC9K7IGTa" d="M1288 5944 c-34 -18 -52 -72 -45 -136 4 -26 9 -53 12 -58 4 -6 7 -40 9 -75 3 -97 19 -109 144 -113 113 -4 148 6 166 48 l12 30 13 -24 c7 -13 30 -33 51 -45 68 -38 211 -22 239 26 7 12 13 14 18 7 5 -6 24 -21 43 -33 61 -37 192 -25 233 22 12 13 21 17 25 10 20 -30 79 -53 139 -53 72 0 108 12 146 48 l27 26 0 -26 c0 -25 4 -27 54 -33 30 -4 59 -4 65 0 7 4 11 51 11 124 0 96 3 121 16 132 14 11 18 10 27 -6 21 -35 25 -59 26 -152 l1 -93 65 0 65 0 0 184 c0 102 -4 187 -8 190 -4 2 -62 7 -127 11 -130 7 -161 -1 -180 -43 -12 -28 -21 -28 -40 1 -23 36 -58 47 -148 47 -83 0 -119 -12 -141 -48 -6 -11 -14 -8 -37 14 -26 25 -39 29 -104 32 -91 5 -116 -1 -146 -32 l-24 -25 -28 27 c-25 24 -37 27 -113 31 -64 2 -90 -1 -108 -13 -20 -13 -26 -13 -36 -1 -16 20 -284 20 -322 -1z m476 -130 c9 -8 16 -22 16 -30 0 -10 13 -14 45 -14 33 0 45 -4 45 -15 0 -11 -11 -15 -40 -15 -33 0 -42 -4 -52 -25 -23 -50 -68 -21 -68 44 0 31 18 71 32 71 3 0 14 -7 22 -16z m300 0 c9 -8 16 -22 16 -30 0 -10 13 -14 45 -14 33 0 45 -4 45 -15 0 -11 -11 -15 -40 -15 -33 0 -42 -4 -52 -25 -23 -50 -68 -21 -68 44 0 31 18 71 32 71 3 0 14 -7 22 -16z m315 2 c7 -8 14 -30 18 -48 4 -27 0 -41 -19 -63 l-24 -28 -21 22 c-29 31 -34 70 -15 103 18 31 43 36 61 14z"></path><path id="ppD2LEGxN" d="M2860 5762 l0 -189 83 -6 c113 -9 175 -9 195 2 10 5 27 5 40 0 18 -7 22 -16 22 -48 0 -46 16 -55 86 -49 38 3 39 4 42 45 3 34 7 42 28 47 23 6 25 10 22 59 -3 45 -6 52 -25 55 -21 3 -23 8 -23 75 0 65 2 73 23 82 19 8 22 18 22 60 l0 50 -74 3 c-44 2 -78 -1 -85 -8 -6 -6 -14 -67 -17 -138 l-5 -127 -2 138 -2 137 -65 0 -65 0 0 -114 c0 -121 -4 -146 -25 -146 -29 0 -40 34 -45 144 l-5 111 -62 3 -63 3 0 -189z"></path><path id="pilmnqUSc" d="M1803 4320 c-44 -29 -63 -84 -63 -180 0 -106 19 -153 75 -185 69 -41 204 -29 242 22 11 14 14 14 30 -2 28 -29 78 -45 138 -45 67 0 114 18 143 55 l22 28 0 -31 c0 -27 4 -31 37 -37 21 -4 89 -6 153 -5 161 3 148 6 152 -42 l3 -43 57 -3 57 -3 3 43 c3 36 7 44 26 46 13 2 26 10 28 17 5 11 10 11 32 -1 38 -20 194 -19 232 1 36 19 39 31 43 165 1 58 4 16 5 -92 l2 -198 65 0 65 0 0 245 c0 214 -2 246 -16 252 -8 3 -104 6 -212 6 -324 1 -369 -1 -379 -15 -4 -7 -11 -69 -14 -138 l-5 -125 -2 138 -2 137 -65 0 -65 0 0 -119 c0 -95 -3 -121 -16 -131 -12 -11 -18 -10 -32 4 -13 13 -18 41 -22 129 l-5 112 -62 3 -63 3 0 -33 -1 -33 -22 26 c-34 41 -59 49 -148 49 -65 0 -88 -4 -115 -21 -19 -11 -34 -26 -34 -32 0 -6 -14 2 -31 19 -28 27 -37 29 -117 32 -74 2 -92 0 -119 -18z m139 -140 c11 -27 18 -30 55 -30 32 0 43 -4 43 -15 0 -11 -12 -15 -45 -15 -32 0 -45 -4 -45 -14 0 -7 -7 -19 -16 -26 -13 -11 -18 -10 -35 7 -26 25 -28 77 -4 103 24 27 31 25 47 -10z m312 8 c23 -32 20 -80 -5 -107 l-22 -23 -23 24 c-34 35 -39 69 -14 101 26 33 44 34 64 5z m636 -100 c0 -18 -5 -28 -15 -28 -12 0 -15 15 -14 78 l1 77 14 -50 c7 -27 14 -62 14 -77z"></path><path id="p19Grc7KqC" d="M3755 4328 c-11 -6 -30 -20 -42 -31 l-23 -20 0 26 c0 27 -1 27 -65 27 l-65 0 0 -114 c0 -121 -4 -146 -25 -146 -29 0 -40 34 -45 144 l-5 111 -62 3 -63 3 0 -189 0 -189 83 -6 c143 -12 182 -9 211 14 14 11 26 27 26 35 0 8 5 14 10 14 6 0 10 -4 10 -10 0 -5 18 -21 40 -36 36 -24 46 -26 130 -23 89 4 93 5 121 37 l29 32 0 -30 c0 -33 22 -44 76 -39 16 2 46 -1 66 -5 21 -5 49 -5 63 -2 25 6 26 9 23 69 -3 59 -4 62 -29 65 -51 6 -64 34 -69 150 l-5 107 -62 3 -63 3 0 -33 c0 -32 0 -32 -16 -10 -26 38 -67 52 -151 52 -43 0 -87 -6 -98 -12z m120 -128 c4 -6 -5 -10 -20 -10 -15 0 -24 4 -20 10 3 6 12 10 20 10 8 0 17 -4 20 -10z"></path><path id="pVkWGfwAj" d="M2798 2854 c-5 -4 -8 -31 -8 -60 0 -49 2 -54 25 -60 20 -5 25 -12 25 -37 0 -31 0 -31 -16 -9 -35 50 -81 59 -237 46 l-77 -7 0 -31 -1 -31 -22 27 c-30 37 -66 48 -154 48 -91 0 -125 -17 -154 -78 -29 -59 -24 -217 7 -259 38 -50 70 -67 138 -71 79 -5 127 10 161 49 l25 31 0 -91 0 -91 60 0 60 0 0 55 0 55 65 0 c69 0 116 17 134 47 8 13 10 -5 11 -69 l0 -88 65 0 65 0 0 103 0 102 20 -32 c31 -52 69 -65 172 -61 87 3 91 4 118 35 28 31 30 32 42 14 8 -11 30 -29 51 -41 32 -19 47 -21 105 -16 150 13 137 17 140 -31 l3 -43 65 0 64 0 0 39 c0 33 4 40 25 45 23 6 25 11 25 61 0 52 -1 55 -25 55 -24 0 -25 2 -25 73 0 65 2 73 23 82 19 8 22 18 22 60 l0 50 -78 3 c-76 3 -77 2 -87 -24 l-11 -27 -20 22 c-30 32 -61 41 -145 41 -71 0 -76 -2 -113 -35 -30 -28 -40 -32 -45 -20 -13 34 -68 55 -149 55 -87 0 -123 -13 -156 -57 l-20 -28 -1 75 c-1 103 -16 123 -102 128 -34 2 -66 0 -70 -4z m-424 -266 c22 -31 20 -80 -4 -106 -26 -28 -53 -16 -69 29 -14 42 -14 42 10 73 25 32 43 33 63 4z m339 -16 c17 -29 17 -33 2 -67 -21 -42 -36 -44 -64 -9 -27 34 -26 54 0 88 25 32 38 30 62 -12z m452 28 c4 -6 -5 -10 -20 -10 -15 0 -24 4 -20 10 3 6 12 10 20 10 8 0 17 -4 20 -10z m330 -20 c14 -28 20 -30 70 -30 42 0 55 -3 55 -15 0 -12 -13 -15 -55 -15 -49 0 -57 -3 -67 -25 -17 -37 -46 -32 -64 12 -14 33 -14 40 0 70 20 41 41 42 61 3z"></path></g></g><g id="lb9Lq8mxrexEp0iUhlC0nJ" fill="rgb(239,91,95)" style="transform: none;"><g><path id="p1oylPxkj" d="M3396 7603 c7 -16 14 -34 14 -40 0 -7 7 -13 15 -13 11 0 15 11 15 40 0 38 -2 40 -29 40 -29 0 -30 0 -15 -27z"></path><path id="pmqKE9pTX" d="M2755 7603 c4 -10 10 -26 12 -35 10 -33 33 -20 33 17 0 31 -3 35 -26 35 -21 0 -25 -3 -19 -17z"></path><path id="patYKLHRs" d="M3200 7523 c0 -34 12 -63 26 -63 10 0 14 13 14 40 0 33 -3 40 -20 40 -12 0 -20 -7 -20 -17z"></path><path id="p1DysFb4AL" d="M2767 7423 c-2 -10 -8 -26 -12 -35 -6 -15 -2 -18 19 -18 23 0 26 4 26 35 0 37 -23 50 -33 18z"></path><path id="p5Ueq7uDp" d="M2486 5853 c7 -16 14 -34 14 -40 0 -7 7 -13 15 -13 11 0 15 11 15 40 0 38 -2 40 -29 40 -29 0 -30 0 -15 -27z"></path><path id="pvlRpfko4" d="M2280 5821 c-16 -31 -12 -51 10 -51 16 0 20 7 20 35 0 39 -14 46 -30 16z"></path><path id="pdUICgifE" d="M2375 4113 c-4 -21 -10 -48 -16 -61 -13 -32 -12 -34 19 -30 26 3 27 6 30 66 2 50 0 62 -12 62 -10 0 -17 -14 -21 -37z"></path><path id="prCkSoPWj" d="M1965 3088 c-3 -7 -4 -353 -3 -768 l3 -755 2025 0 2025 0 0 765 0 765 -2023 3 c-1613 2 -2024 0 -2027 -10z m957 -290 c15 -20 18 -48 18 -220 l0 -198 -35 0 -35 0 0 189 0 189 -25 6 c-18 5 -25 13 -25 30 0 12 3 26 8 30 14 14 76 -3 94 -26z m-515 -98 c109 -39 121 -249 17 -316 -39 -26 -125 -25 -160 2 -50 37 -66 68 -71 137 -7 77 18 140 64 169 32 20 105 23 150 8z m350 -10 c47 -28 66 -73 66 -155 0 -83 -19 -127 -64 -151 -32 -16 -105 -16 -141 0 -16 7 -18 1 -18 -58 l0 -66 -30 0 -30 0 0 221 0 222 38 -6 c20 -4 44 -2 52 3 25 16 93 11 127 -10z m470 0 c30 -18 63 -65 63 -90 0 -23 -59 -10 -88 20 -39 39 -82 40 -111 4 -12 -15 -21 -35 -21 -45 0 -17 9 -19 110 -19 l110 0 0 -40 c0 -95 -43 -143 -133 -148 -112 -6 -160 47 -158 175 1 82 16 114 66 144 41 25 120 25 162 -1z m307 5 c35 -17 66 -61 66 -94 0 -17 -6 -21 -30 -21 -23 0 -33 7 -45 29 -27 53 -93 53 -120 1 -45 -87 16 -212 88 -179 14 6 30 22 36 35 8 18 19 24 41 24 33 0 36 -9 19 -59 -21 -60 -123 -87 -190 -49 -53 29 -79 82 -79 157 0 70 15 107 60 145 37 31 102 35 154 11z m231 -20 c0 -11 -10 -24 -22 -30 -22 -9 -23 -16 -23 -112 l0 -103 25 0 c20 0 25 -5 25 -25 0 -18 -7 -26 -25 -31 -21 -5 -25 -12 -25 -45 0 -38 -1 -39 -35 -39 -34 0 -35 1 -35 41 0 32 -4 42 -20 46 -13 3 -20 14 -20 29 0 17 6 24 20 24 19 0 20 7 20 109 0 60 4 121 10 136 9 24 14 26 57 23 40 -3 48 -6 48 -23z m-825 -380 c0 -33 -2 -35 -35 -35 -33 0 -35 2 -35 35 0 33 2 35 35 35 33 0 35 -2 35 -35z"></path><path id="pmvKpBPnI" d="M2286 2619 c-60 -70 -8 -214 70 -195 54 14 81 77 64 151 -18 77 -87 100 -134 44z"></path><path id="p1FinuijL2" d="M2626 2620 c-49 -59 -28 -165 38 -189 73 -27 126 102 73 180 -32 48 -75 51 -111 9z"></path><path id="ptzvie9dL" d="M3081 2501 c-20 -13 -7 -38 31 -61 42 -25 42 -25 80 8 45 41 34 59 -39 60 -32 1 -64 -2 -72 -7z"></path></g></g><g id="lD0jV1rcPRgGH0GtwSRZ8n" fill="rgb(238,39,55)" style="transform: none;"><g><path id="pTUygOmtb" d="M1790 5935 c0 -8 5 -15 12 -15 6 0 22 -10 35 -22 l23 -21 0 36 c0 36 -1 37 -35 37 -24 0 -35 -5 -35 -15z"></path><path id="pBi5THZoc" d="M1878 5825 c4 -22 1 -25 -22 -25 -21 0 -26 -5 -26 -25 0 -22 4 -25 35 -25 33 0 35 2 35 34 0 19 3 41 6 50 4 11 0 16 -14 16 -15 0 -18 -5 -14 -25z"></path><path id="pc1y6o5H8" d="M2276 5808 c-12 -45 -7 -68 14 -68 17 0 20 7 20 45 0 49 -23 64 -34 23z"></path><path id="p11HcOzqQO" d="M3333 5649 c23 -14 22 -46 -3 -54 -11 -3 -20 -13 -20 -21 0 -11 10 -14 38 -12 37 3 37 3 40 51 l3 47 -38 0 c-31 -1 -35 -3 -20 -11z"></path><path id="pAP2Yv2iU" d="M1525 4688 c-3 -7 -4 -776 -3 -1708 l3 -1695 3145 0 3145 0 0 1705 0 1705 -3143 3 c-2509 2 -3144 0 -3147 -10z m485 -414 c16 -16 32 -44 36 -61 6 -32 6 -33 -30 -33 -23 0 -36 5 -36 13 0 22 -39 57 -64 57 -12 0 -33 -12 -47 -26 -20 -21 -24 -36 -24 -86 1 -55 4 -63 33 -89 18 -16 36 -29 41 -29 16 0 61 41 61 56 0 9 11 14 35 14 40 0 43 -11 21 -64 -15 -35 -72 -66 -123 -66 -46 0 -109 45 -127 90 -34 86 -12 201 47 240 49 32 138 24 177 -16z m283 25 c52 -27 87 -97 87 -176 0 -47 -5 -61 -31 -94 -38 -48 -58 -59 -112 -64 -62 -6 -121 25 -146 79 -41 83 -19 206 42 245 36 23 124 28 160 10z m790 -4 c24 -12 31 -12 55 2 37 21 82 11 82 -18 0 -12 -8 -23 -20 -26 -18 -5 -20 -14 -20 -113 0 -60 -3 -116 -6 -125 -15 -39 -133 -60 -199 -35 -23 9 -55 60 -55 90 0 22 52 9 82 -20 32 -33 48 -36 81 -19 59 31 38 64 -45 73 -81 10 -116 30 -128 77 -20 73 26 128 105 129 22 0 52 -7 68 -15z m854 -5 c30 -18 63 -65 63 -90 0 -19 -64 -11 -77 10 -7 11 -26 26 -42 34 -27 14 -31 14 -62 -7 -22 -15 -35 -32 -37 -50 l-3 -27 110 0 111 0 0 -40 c0 -93 -43 -142 -130 -148 -49 -4 -65 0 -96 18 -96 60 -99 234 -5 297 44 30 122 31 168 3z m-1447 -108 c5 -104 7 -115 29 -133 29 -23 59 -24 83 -2 15 14 18 32 18 135 l0 118 35 0 35 0 0 -114 c0 -133 -5 -167 -32 -195 -21 -24 -96 -29 -144 -11 -16 6 -31 7 -36 2 -5 -5 -20 -7 -34 -4 l-24 4 0 160 0 159 33 -3 32 -3 5 -113z m390 93 c0 -18 -7 -26 -25 -31 -25 -6 -25 -8 -25 -109 0 -100 1 -104 23 -107 16 -2 22 -10 22 -28 0 -16 -5 -24 -14 -22 -23 5 -41 -19 -41 -57 0 -34 -2 -37 -27 -36 -26 0 -28 4 -33 45 -3 31 -10 45 -20 45 -9 0 -16 11 -18 28 -3 22 1 27 17 27 20 0 21 5 21 116 0 143 5 154 70 154 47 0 50 -2 50 -25z m438 -137 l3 -158 -36 0 -35 0 0 161 0 160 33 -3 32 -3 3 -157z m142 44 c5 -104 7 -115 29 -133 28 -23 64 -24 85 -3 13 12 16 40 16 135 l0 119 36 0 36 0 -4 -141 -3 -141 -29 -25 c-26 -22 -35 -24 -85 -19 -31 4 -77 6 -103 6 l-48 -1 0 161 0 161 33 -3 32 -3 5 -113z m660 6 c5 -116 18 -144 69 -150 21 -2 27 -9 29 -34 4 -40 -15 -48 -60 -26 -27 14 -38 15 -57 6 -48 -24 -51 -14 -51 158 l0 159 33 -3 32 -3 5 -107z m-800 -293 c0 -33 -2 -35 -35 -35 -33 0 -35 2 -35 35 0 33 2 35 35 35 33 0 35 -2 35 -35z m2665 -1565 l0 -735 -1995 0 -1995 0 -3 725 c-1 399 0 731 3 738 3 10 408 12 1997 10 l1993 -3 0 -735z"></path><path id="p04lr51G" d="M2166 4219 c-45 -53 -32 -139 25 -182 30 -22 59 -17 89 16 16 16 20 35 20 84 0 54 -4 68 -25 88 -35 35 -76 33 -109 -6z"></path><path id="pIYqFaXMX" d="M2992 4238 c-7 -7 -12 -22 -12 -34 0 -24 29 -39 99 -48 43 -7 43 -7 37 21 -13 56 -91 94 -124 61z"></path><path id="pZSVXQntA" d="M3788 4099 c-17 -11 -2 -37 34 -59 41 -25 40 -25 78 6 48 41 37 58 -38 59 -34 0 -68 -2 -74 -6z"></path></g></g><g id="l79nJxc8S06nFA2RfvdctVb" fill="rgb(204,38,49)" style="transform: none;"><g><path id="pUgEa8g1c" d="M1290 7681 c0 -5 7 -11 15 -15 22 -8 19 -47 -5 -53 -15 -4 -20 -14 -20 -39 0 -27 4 -34 20 -34 16 0 20 7 20 30 0 20 5 30 15 30 9 0 15 9 15 23 0 12 3 32 6 45 6 20 3 22 -30 22 -20 0 -36 -4 -36 -9z"></path><path id="pwZI3MVZi" d="M1790 7541 c0 -55 -3 -106 -6 -115 -5 -12 0 -16 20 -16 l26 0 0 115 c0 108 -1 115 -20 115 -19 0 -20 -7 -20 -99z"></path><path id="p1c6WS3gc" d="M3098 7613 c-13 -3 -18 -15 -18 -39 0 -27 4 -34 20 -34 17 0 20 7 20 40 0 22 -1 39 -2 39 -2 -1 -11 -3 -20 -6z"></path><path id="pqVutzlBW" d="M1998 7333 c-43 -4 -48 -7 -48 -29 0 -22 4 -24 50 -24 49 0 50 1 50 30 0 17 -1 29 -2 28 -2 -1 -24 -3 -50 -5z"></path><path id="pa25ucctA" d="M3598 7333 c-43 -4 -48 -7 -48 -29 0 -22 4 -24 50 -24 49 0 50 1 50 30 0 17 -1 29 -2 28 -2 -1 -24 -3 -50 -5z"></path><path id="pk1Vo7A87" d="M1025 6268 c-3 -7 -4 -1253 -3 -2768 l3 -2755 4145 0 4145 0 0 2765 0 2765 -4143 3 c-3309 2 -4144 0 -4147 -10z m431 -353 c32 -13 37 -13 51 1 20 19 63 14 77 -9 9 -15 7 -22 -11 -34 -21 -14 -23 -23 -23 -123 0 -147 -6 -155 -124 -155 -96 0 -118 12 -131 73 -6 30 -5 32 22 32 19 0 39 -10 58 -30 32 -33 42 -36 80 -18 20 9 25 18 23 37 -3 23 -9 26 -75 36 -106 16 -149 67 -122 145 20 56 100 76 175 45z m384 -16 c11 -13 27 -39 35 -57 13 -30 13 -35 0 -49 -8 -8 -15 -10 -15 -4 0 6 -11 11 -24 11 -17 0 -26 7 -30 23 -3 13 -16 29 -30 36 -59 32 -113 -25 -101 -107 10 -71 14 -81 45 -97 35 -18 72 -5 89 31 13 28 71 35 71 9 0 -35 -30 -86 -57 -96 -121 -49 -223 24 -223 160 0 71 15 107 62 146 30 25 38 27 95 22 50 -4 67 -10 83 -28z m300 -5 c16 -16 32 -44 36 -61 6 -32 6 -33 -29 -33 -28 0 -36 4 -41 23 -3 13 -16 29 -30 36 -59 32 -113 -25 -101 -107 10 -71 14 -81 45 -97 35 -18 72 -5 89 31 13 28 71 35 71 9 0 -35 -30 -86 -57 -96 -125 -48 -223 23 -223 161 0 115 53 173 153 167 48 -3 63 -8 87 -33z m286 23 c12 -7 33 -26 48 -43 24 -29 26 -40 26 -117 0 -78 -2 -88 -26 -116 -34 -40 -57 -52 -111 -57 -57 -6 -113 24 -142 76 -44 80 -20 211 47 253 32 20 127 22 158 4z m344 0 l45 -2 3 -157 3 -158 -35 0 -34 0 -4 108 c-2 70 -9 115 -18 129 -20 31 -66 40 -91 17 -17 -15 -19 -31 -19 -134 0 -64 -2 -119 -5 -122 -3 -2 -18 -3 -35 0 l-30 4 0 127 c0 81 5 135 13 151 19 38 54 52 112 45 28 -4 70 -7 95 -8z m190 -115 c5 -104 7 -115 29 -133 28 -23 64 -24 85 -3 13 12 16 40 16 135 l0 119 36 0 36 0 -4 -141 -3 -141 -29 -25 c-26 -22 -35 -24 -85 -19 -31 4 -77 6 -103 6 l-48 -1 0 161 0 161 33 -3 32 -3 5 -113z m385 93 c0 -11 -10 -24 -22 -30 -22 -9 -23 -16 -23 -112 0 -94 2 -103 19 -103 24 0 45 -25 37 -45 -3 -8 -9 -15 -13 -14 -34 6 -43 -2 -43 -40 0 -45 -10 -56 -46 -47 -20 5 -24 12 -24 47 0 32 -4 42 -20 46 -13 3 -20 14 -20 29 0 17 6 24 20 24 19 0 20 7 20 109 0 60 4 121 10 136 9 24 14 26 57 23 40 -3 48 -6 48 -23z m4440 -2905 l0 -1675 -3115 0 -3115 0 -3 1665 c-1 916 0 1671 3 1678 3 10 632 12 3117 10 l3113 -3 0 -1675z"></path><path id="p16yxOrTJU" d="M1362 5858 c-34 -34 2 -72 76 -81 41 -5 42 -4 42 23 0 51 -84 92 -118 58z"></path><path id="pgT2L52PK" d="M2302 5849 c-49 -52 -31 -174 29 -200 37 -15 72 6 96 57 15 30 15 41 5 82 -7 26 -22 55 -33 65 -28 23 -74 22 -97 -4z"></path></g></g><g id="l7mj5JsznFeKJ0yZts8JCxF" fill="rgb(172,27,29)" style="transform: none;"><g><path id="pDiMzjslm" d="M460 4180 l0 -3840 5210 0 5210 0 0 3840 0 3840 -5210 0 -5210 0 0 -3840z m2090 3534 c0 -60 2 -65 18 -58 9 5 43 9 76 9 55 0 60 -2 91 -38 39 -45 48 -86 39 -168 -6 -52 -12 -66 -43 -96 -35 -33 -37 -34 -96 -29 -33 3 -81 5 -107 5 l-48 0 0 214 c0 117 3 217 7 220 3 4 19 7 35 7 28 0 28 0 28 -66z m-1367 -59 c26 -13 31 -13 50 0 55 38 126 -2 73 -41 -17 -12 -21 -31 -25 -129 -7 -136 -13 -146 -95 -153 -85 -7 -124 4 -146 41 -29 46 -26 67 8 67 17 0 37 -11 55 -30 16 -16 35 -30 42 -30 24 0 64 22 70 38 9 25 -11 36 -86 49 -92 15 -119 38 -119 103 0 48 11 70 45 88 29 16 95 14 128 -3z m877 2 c26 -13 70 -71 70 -93 0 -26 -57 -16 -88 16 -19 19 -41 30 -58 30 -34 0 -74 -36 -74 -67 0 -23 2 -23 110 -23 l110 0 0 -49 c0 -57 -30 -108 -75 -130 -17 -8 -31 -18 -33 -23 -5 -11 -42 -10 -42 2 0 6 -10 10 -21 10 -32 0 -87 38 -105 71 -23 45 -25 152 -4 191 26 51 74 78 134 78 28 0 62 -6 76 -13z m356 -20 c18 -21 24 -40 24 -77 0 -59 -13 -71 -104 -94 -88 -23 -105 -43 -61 -72 21 -14 30 -14 55 -4 16 7 32 21 35 31 4 13 16 19 36 19 25 0 29 -4 29 -29 0 -20 -9 -37 -31 -55 -26 -22 -40 -26 -93 -26 -76 0 -112 22 -122 76 -13 68 14 93 131 126 42 12 50 18 50 38 0 36 -45 56 -82 38 -16 -7 -32 -23 -38 -36 -7 -16 -18 -22 -44 -22 -32 0 -33 1 -27 33 3 17 20 45 37 61 30 27 36 28 106 24 67 -3 78 -6 99 -31z m567 18 c25 -13 31 -13 52 1 51 33 117 -8 69 -43 -15 -11 -19 -33 -23 -128 -7 -136 -13 -146 -95 -153 -106 -9 -144 10 -160 81 -6 24 -4 27 21 27 18 0 38 -11 56 -30 16 -16 35 -30 42 -30 24 0 64 22 70 38 9 25 -11 36 -86 49 -92 15 -119 38 -119 103 0 48 11 70 45 88 29 16 95 14 128 -3z m350 6 c38 -15 77 -62 77 -93 0 -25 -3 -28 -35 -28 -24 0 -35 5 -35 15 0 23 -37 55 -63 55 -13 0 -34 -12 -48 -26 -20 -22 -24 -34 -22 -81 4 -90 51 -140 100 -108 14 10 28 26 30 36 4 14 14 19 39 19 28 0 34 -4 34 -20 0 -59 -62 -110 -133 -110 -49 0 -112 43 -131 90 -21 53 -20 146 2 188 34 63 114 90 185 63z m327 -4 c26 -13 70 -71 70 -93 0 -26 -57 -16 -88 16 -19 19 -41 30 -58 30 -34 0 -74 -36 -74 -67 0 -23 2 -23 110 -23 l110 0 0 -49 c0 -57 -30 -108 -75 -130 -17 -8 -31 -18 -33 -23 -5 -11 -42 -10 -42 2 0 6 -10 10 -21 10 -33 0 -87 38 -106 73 -12 22 -17 55 -17 103 1 79 18 114 69 145 35 22 117 25 155 6z m-2902 -107 c3 -98 5 -107 29 -132 28 -30 61 -36 81 -16 8 8 12 49 12 119 0 59 3 114 6 123 4 10 18 16 41 16 l35 0 -4 -139 c-3 -133 -4 -141 -28 -166 -23 -25 -29 -26 -85 -21 -33 4 -81 6 -107 6 l-48 -1 0 161 0 161 33 -3 32 -3 3 -105z m662 -8 c5 -104 7 -115 29 -133 61 -50 90 -4 89 146 l0 100 34 0 33 0 3 -117 c2 -112 4 -119 27 -134 61 -40 85 2 85 149 l0 108 32 -3 c25 -2 34 -9 39 -28 11 -39 10 -188 -1 -195 -5 -3 -10 -17 -10 -31 0 -42 -42 -74 -97 -74 -28 0 -58 7 -71 16 -20 14 -24 14 -44 0 -26 -18 -90 -21 -120 -5 -12 7 -24 7 -29 2 -5 -5 -23 -8 -39 -5 l-30 4 0 160 0 159 33 -3 32 -3 5 -113z m7865 -4032 l0 -2735 -4115 0 -4115 0 -3 2725 c-1 1499 0 2731 3 2738 3 10 832 12 4117 10 l4113 -3 0 -2735z"></path><path id="pqLKIUeP5" d="M2600 7603 c-29 -12 -39 -39 -39 -103 0 -68 9 -89 46 -109 18 -9 29 -9 52 3 36 19 41 33 41 105 0 83 -42 126 -100 104z"></path><path id="peQ8Kfn3n" d="M1092 7598 c-35 -35 2 -72 82 -82 l48 -6 -6 28 c-13 55 -91 93 -124 60z"></path><path id="pyzEB0234" d="M1921 7461 c-33 -21 50 -92 87 -72 27 14 54 49 50 62 -5 15 -116 23 -137 10z"></path><path id="pQ9G2jsos" d="M2892 7598 c-35 -35 2 -72 82 -82 l48 -6 -6 28 c-13 55 -91 93 -124 60z"></path><path id="ploT9fgqr" d="M3521 7461 c-34 -21 50 -92 87 -72 27 14 54 49 50 62 -5 14 -116 23 -137 10z"></path></g></g></svg>
